<svg xmlns="http://www.w3.org/2000/svg" xmlns:xlink="http://www.w3.org/1999/xlink" width="500" zoomAndPan="magnify" viewBox="0 0 375 374.999991" height="500" preserveAspectRatio="xMidYMid meet" version="1.0"><defs><g/><clipPath id="0237719fdd"><path d="M 109 99 L 263 99 L 263 230 L 109 230 Z M 109 99 " clip-rule="nonzero"/></clipPath><clipPath id="42b49c9031"><path d="M 125.175781 229.660156 L 109.9375 99.632812 L 254.695312 82.667969 L 269.933594 212.695312 Z M 125.175781 229.660156 " clip-rule="nonzero"/></clipPath><clipPath id="4734ce89d4"><path d="M 262.011719 147.714844 L 109.9375 99.632812 L 125.175781 229.660156 Z M 262.011719 147.714844 " clip-rule="nonzero"/></clipPath><clipPath id="2bd8e827bb"><path d="M 125.175781 229.660156 L 109.9375 99.632812 L 254.1875 82.726562 L 269.425781 212.753906 Z M 125.175781 229.660156 " clip-rule="nonzero"/></clipPath><clipPath id="9f79d7a9a0"><path d="M 125.175781 229.660156 L 109.9375 99.632812 L 254.390625 82.703125 L 269.628906 212.730469 Z M 125.175781 229.660156 " clip-rule="nonzero"/></clipPath><linearGradient x1="-31.143409" gradientTransform="matrix(-0.0595228, -0.507919, 0.507919, -0.0595228, 125.173944, 229.658855)" y1="142.201004" x2="255.999999" gradientUnits="userSpaceOnUse" y2="142.201004" id="f4baffe019"><stop stop-opacity="1" stop-color="rgb(0%, 28.999329%, 67.799377%)" offset="0"/><stop stop-opacity="1" stop-color="rgb(0%, 28.999329%, 67.799377%)" offset="0.0625"/><stop stop-opacity="1" stop-color="rgb(0%, 28.999329%, 67.799377%)" offset="0.09375"/><stop stop-opacity="1" stop-color="rgb(0.0106812%, 29.022217%, 67.803955%)" offset="0.109375"/><stop stop-opacity="1" stop-color="rgb(0.12207%, 29.240417%, 67.848206%)" offset="0.113281"/><stop stop-opacity="1" stop-color="rgb(0.221252%, 29.437256%, 67.887878%)" offset="0.117188"/><stop stop-opacity="1" stop-color="rgb(0.320435%, 29.632568%, 67.927551%)" offset="0.125"/><stop stop-opacity="1" stop-color="rgb(0.520325%, 30.023193%, 68.008423%)" offset="0.128906"/><stop stop-opacity="1" stop-color="rgb(0.619507%, 30.220032%, 68.048096%)" offset="0.132812"/><stop stop-opacity="1" stop-color="rgb(0.718689%, 30.415344%, 68.087769%)" offset="0.136719"/><stop stop-opacity="1" stop-color="rgb(0.817871%, 30.612183%, 68.127441%)" offset="0.140625"/><stop stop-opacity="1" stop-color="rgb(0.917053%, 30.807495%, 68.167114%)" offset="0.144531"/><stop stop-opacity="1" stop-color="rgb(1.017761%, 31.004333%, 68.206787%)" offset="0.148438"/><stop stop-opacity="1" stop-color="rgb(1.116943%, 31.199646%, 68.24646%)" offset="0.15625"/><stop stop-opacity="1" stop-color="rgb(1.315308%, 31.590271%, 68.327332%)" offset="0.160156"/><stop stop-opacity="1" stop-color="rgb(1.41449%, 31.787109%, 68.367004%)" offset="0.164062"/><stop stop-opacity="1" stop-color="rgb(1.513672%, 31.982422%, 68.406677%)" offset="0.167969"/><stop stop-opacity="1" stop-color="rgb(1.61438%, 32.17926%, 68.44635%)" offset="0.171875"/><stop stop-opacity="1" stop-color="rgb(1.713562%, 32.374573%, 68.486023%)" offset="0.179688"/><stop stop-opacity="1" stop-color="rgb(1.911926%, 32.765198%, 68.565369%)" offset="0.183594"/><stop stop-opacity="1" stop-color="rgb(2.011108%, 32.962036%, 68.606567%)" offset="0.1875"/><stop stop-opacity="1" stop-color="rgb(2.110291%, 33.157349%, 68.64624%)" offset="0.191406"/><stop stop-opacity="1" stop-color="rgb(2.210999%, 33.354187%, 68.685913%)" offset="0.195312"/><stop stop-opacity="1" stop-color="rgb(2.310181%, 33.5495%, 68.725586%)" offset="0.203125"/><stop stop-opacity="1" stop-color="rgb(2.508545%, 33.940125%, 68.804932%)" offset="0.207031"/><stop stop-opacity="1" stop-color="rgb(2.607727%, 34.136963%, 68.844604%)" offset="0.210938"/><stop stop-opacity="1" stop-color="rgb(2.706909%, 34.332275%, 68.884277%)" offset="0.214844"/><stop stop-opacity="1" stop-color="rgb(2.807617%, 34.529114%, 68.925476%)" offset="0.21875"/><stop stop-opacity="1" stop-color="rgb(2.906799%, 34.724426%, 68.965149%)" offset="0.222656"/><stop stop-opacity="1" stop-color="rgb(3.005981%, 34.921265%, 69.004822%)" offset="0.226563"/><stop stop-opacity="1" stop-color="rgb(3.105164%, 35.116577%, 69.044495%)" offset="0.234375"/><stop stop-opacity="1" stop-color="rgb(3.305054%, 35.507202%, 69.12384%)" offset="0.238281"/><stop stop-opacity="1" stop-color="rgb(3.404236%, 35.704041%, 69.163513%)" offset="0.242188"/><stop stop-opacity="1" stop-color="rgb(3.503418%, 35.899353%, 69.203186%)" offset="0.246094"/><stop stop-opacity="1" stop-color="rgb(3.6026%, 36.096191%, 69.244385%)" offset="0.25"/><stop stop-opacity="1" stop-color="rgb(3.701782%, 36.291504%, 69.284058%)" offset="0.257812"/><stop stop-opacity="1" stop-color="rgb(3.901672%, 36.682129%, 69.363403%)" offset="0.261719"/><stop stop-opacity="1" stop-color="rgb(4.000854%, 36.878967%, 69.403076%)" offset="0.265625"/><stop stop-opacity="1" stop-color="rgb(4.100037%, 37.07428%, 69.442749%)" offset="0.269531"/><stop stop-opacity="1" stop-color="rgb(4.199219%, 37.271118%, 69.482422%)" offset="0.273438"/><stop stop-opacity="1" stop-color="rgb(4.298401%, 37.466431%, 69.522095%)" offset="0.277344"/><stop stop-opacity="1" stop-color="rgb(4.399109%, 37.663269%, 69.563293%)" offset="0.28125"/><stop stop-opacity="1" stop-color="rgb(4.498291%, 37.858582%, 69.602966%)" offset="0.289062"/><stop stop-opacity="1" stop-color="rgb(4.696655%, 38.249207%, 69.682312%)" offset="0.292969"/><stop stop-opacity="1" stop-color="rgb(4.795837%, 38.446045%, 69.721985%)" offset="0.296875"/><stop stop-opacity="1" stop-color="rgb(4.89502%, 38.641357%, 69.761658%)" offset="0.300781"/><stop stop-opacity="1" stop-color="rgb(4.995728%, 38.838196%, 69.802856%)" offset="0.304688"/><stop stop-opacity="1" stop-color="rgb(5.09491%, 39.033508%, 69.842529%)" offset="0.3125"/><stop stop-opacity="1" stop-color="rgb(5.293274%, 39.424133%, 69.921875%)" offset="0.316406"/><stop stop-opacity="1" stop-color="rgb(5.393982%, 39.620972%, 69.961548%)" offset="0.320313"/><stop stop-opacity="1" stop-color="rgb(5.493164%, 39.816284%, 70.001221%)" offset="0.324219"/><stop stop-opacity="1" stop-color="rgb(5.592346%, 40.013123%, 70.040894%)" offset="0.328125"/><stop stop-opacity="1" stop-color="rgb(5.691528%, 40.208435%, 70.080566%)" offset="0.332031"/><stop stop-opacity="1" stop-color="rgb(5.79071%, 40.405273%, 70.121765%)" offset="0.335938"/><stop stop-opacity="1" stop-color="rgb(5.889893%, 40.600586%, 70.161438%)" offset="0.34375"/><stop stop-opacity="1" stop-color="rgb(6.089783%, 40.991211%, 70.240784%)" offset="0.347656"/><stop stop-opacity="1" stop-color="rgb(6.188965%, 41.188049%, 70.280457%)" offset="0.351562"/><stop stop-opacity="1" stop-color="rgb(6.288147%, 41.383362%, 70.320129%)" offset="0.355469"/><stop stop-opacity="1" stop-color="rgb(6.387329%, 41.5802%, 70.359802%)" offset="0.359375"/><stop stop-opacity="1" stop-color="rgb(6.486511%, 41.775513%, 70.399475%)" offset="0.367188"/><stop stop-opacity="1" stop-color="rgb(6.686401%, 42.166138%, 70.480347%)" offset="0.371094"/><stop stop-opacity="1" stop-color="rgb(6.785583%, 42.362976%, 70.52002%)" offset="0.375"/><stop stop-opacity="1" stop-color="rgb(6.884766%, 42.558289%, 70.559692%)" offset="0.378906"/><stop stop-opacity="1" stop-color="rgb(6.983948%, 42.755127%, 70.599365%)" offset="0.382812"/><stop stop-opacity="1" stop-color="rgb(7.08313%, 42.950439%, 70.639038%)" offset="0.390625"/><stop stop-opacity="1" stop-color="rgb(7.28302%, 43.341064%, 70.718384%)" offset="0.394531"/><stop stop-opacity="1" stop-color="rgb(7.382202%, 43.537903%, 70.759583%)" offset="0.398438"/><stop stop-opacity="1" stop-color="rgb(7.481384%, 43.733215%, 70.799255%)" offset="0.402344"/><stop stop-opacity="1" stop-color="rgb(7.582092%, 43.930054%, 70.838928%)" offset="0.40625"/><stop stop-opacity="1" stop-color="rgb(7.681274%, 44.125366%, 70.878601%)" offset="0.410156"/><stop stop-opacity="1" stop-color="rgb(7.780457%, 44.322205%, 70.918274%)" offset="0.414062"/><stop stop-opacity="1" stop-color="rgb(7.879639%, 44.517517%, 70.957947%)" offset="0.421875"/><stop stop-opacity="1" stop-color="rgb(8.078003%, 44.908142%, 71.037292%)" offset="0.425781"/><stop stop-opacity="1" stop-color="rgb(8.178711%, 45.10498%, 71.078491%)" offset="0.429688"/><stop stop-opacity="1" stop-color="rgb(8.277893%, 45.300293%, 71.118164%)" offset="0.433594"/><stop stop-opacity="1" stop-color="rgb(8.377075%, 45.497131%, 71.157837%)" offset="0.4375"/><stop stop-opacity="1" stop-color="rgb(8.476257%, 45.692444%, 71.19751%)" offset="0.445312"/><stop stop-opacity="1" stop-color="rgb(8.674622%, 46.083069%, 71.276855%)" offset="0.449219"/><stop stop-opacity="1" stop-color="rgb(8.77533%, 46.279907%, 71.316528%)" offset="0.453125"/><stop stop-opacity="1" stop-color="rgb(8.874512%, 46.47522%, 71.356201%)" offset="0.457031"/><stop stop-opacity="1" stop-color="rgb(8.973694%, 46.672058%, 71.3974%)" offset="0.460938"/><stop stop-opacity="1" stop-color="rgb(9.072876%, 46.867371%, 71.437073%)" offset="0.464844"/><stop stop-opacity="1" stop-color="rgb(9.172058%, 47.064209%, 71.476746%)" offset="0.46875"/><stop stop-opacity="1" stop-color="rgb(9.27124%, 47.259521%, 71.516418%)" offset="0.476562"/><stop stop-opacity="1" stop-color="rgb(9.47113%, 47.650146%, 71.595764%)" offset="0.480469"/><stop stop-opacity="1" stop-color="rgb(9.570312%, 47.846985%, 71.636963%)" offset="0.484375"/><stop stop-opacity="1" stop-color="rgb(9.669495%, 48.042297%, 71.676636%)" offset="0.488281"/><stop stop-opacity="1" stop-color="rgb(9.770203%, 48.239136%, 71.716309%)" offset="0.492188"/><stop stop-opacity="1" stop-color="rgb(9.869385%, 48.434448%, 71.755981%)" offset="0.5"/><stop stop-opacity="1" stop-color="rgb(10.067749%, 48.825073%, 71.835327%)" offset="0.503906"/><stop stop-opacity="1" stop-color="rgb(10.166931%, 49.021912%, 71.875%)" offset="0.507812"/><stop stop-opacity="1" stop-color="rgb(10.266113%, 49.217224%, 71.914673%)" offset="0.511719"/><stop stop-opacity="1" stop-color="rgb(10.366821%, 49.414062%, 71.955872%)" offset="0.515625"/><stop stop-opacity="1" stop-color="rgb(10.466003%, 49.609375%, 71.995544%)" offset="0.523438"/><stop stop-opacity="1" stop-color="rgb(10.664368%, 50%, 72.07489%)" offset="0.527344"/><stop stop-opacity="1" stop-color="rgb(10.76355%, 50.196838%, 72.114563%)" offset="0.53125"/><stop stop-opacity="1" stop-color="rgb(10.862732%, 50.392151%, 72.154236%)" offset="0.535156"/><stop stop-opacity="1" stop-color="rgb(10.96344%, 50.588989%, 72.193909%)" offset="0.539062"/><stop stop-opacity="1" stop-color="rgb(11.062622%, 50.784302%, 72.233582%)" offset="0.542969"/><stop stop-opacity="1" stop-color="rgb(11.161804%, 50.98114%, 72.27478%)" offset="0.546875"/><stop stop-opacity="1" stop-color="rgb(11.260986%, 51.176453%, 72.314453%)" offset="0.554688"/><stop stop-opacity="1" stop-color="rgb(11.459351%, 51.567078%, 72.393799%)" offset="0.558594"/><stop stop-opacity="1" stop-color="rgb(11.560059%, 51.763916%, 72.433472%)" offset="0.5625"/><stop stop-opacity="1" stop-color="rgb(11.659241%, 51.959229%, 72.473145%)" offset="0.566406"/><stop stop-opacity="1" stop-color="rgb(11.758423%, 52.156067%, 72.512817%)" offset="0.570313"/><stop stop-opacity="1" stop-color="rgb(11.857605%, 52.351379%, 72.55249%)" offset="0.578125"/><stop stop-opacity="1" stop-color="rgb(12.057495%, 52.742004%, 72.633362%)" offset="0.582031"/><stop stop-opacity="1" stop-color="rgb(12.156677%, 52.938843%, 72.673035%)" offset="0.585938"/><stop stop-opacity="1" stop-color="rgb(12.255859%, 53.134155%, 72.712708%)" offset="0.589844"/><stop stop-opacity="1" stop-color="rgb(12.355042%, 53.330994%, 72.75238%)" offset="0.59375"/><stop stop-opacity="1" stop-color="rgb(12.454224%, 53.526306%, 72.792053%)" offset="0.597656"/><stop stop-opacity="1" stop-color="rgb(12.554932%, 53.723145%, 72.831726%)" offset="0.601562"/><stop stop-opacity="1" stop-color="rgb(12.654114%, 53.918457%, 72.871399%)" offset="0.609375"/><stop stop-opacity="1" stop-color="rgb(12.852478%, 54.309082%, 72.952271%)" offset="0.613281"/><stop stop-opacity="1" stop-color="rgb(12.95166%, 54.50592%, 72.991943%)" offset="0.617187"/><stop stop-opacity="1" stop-color="rgb(13.050842%, 54.701233%, 73.031616%)" offset="0.621094"/><stop stop-opacity="1" stop-color="rgb(13.15155%, 54.898071%, 73.071289%)" offset="0.625"/><stop stop-opacity="1" stop-color="rgb(13.250732%, 55.093384%, 73.110962%)" offset="0.632812"/><stop stop-opacity="1" stop-color="rgb(13.449097%, 55.484009%, 73.190308%)" offset="0.636719"/><stop stop-opacity="1" stop-color="rgb(13.548279%, 55.680847%, 73.231506%)" offset="0.640625"/><stop stop-opacity="1" stop-color="rgb(13.647461%, 55.87616%, 73.271179%)" offset="0.644531"/><stop stop-opacity="1" stop-color="rgb(13.748169%, 56.072998%, 73.310852%)" offset="0.648437"/><stop stop-opacity="1" stop-color="rgb(13.847351%, 56.268311%, 73.350525%)" offset="0.65625"/><stop stop-opacity="1" stop-color="rgb(14.045715%, 56.658936%, 73.429871%)" offset="0.660156"/><stop stop-opacity="1" stop-color="rgb(14.146423%, 56.855774%, 73.469543%)" offset="0.664062"/><stop stop-opacity="1" stop-color="rgb(14.245605%, 57.051086%, 73.509216%)" offset="0.667969"/><stop stop-opacity="1" stop-color="rgb(14.344788%, 57.247925%, 73.550415%)" offset="0.671875"/><stop stop-opacity="1" stop-color="rgb(14.44397%, 57.443237%, 73.590088%)" offset="0.675781"/><stop stop-opacity="1" stop-color="rgb(14.543152%, 57.640076%, 73.629761%)" offset="0.679688"/><stop stop-opacity="1" stop-color="rgb(14.642334%, 57.835388%, 73.669434%)" offset="0.6875"/><stop stop-opacity="1" stop-color="rgb(14.842224%, 58.226013%, 73.748779%)" offset="0.691406"/><stop stop-opacity="1" stop-color="rgb(14.941406%, 58.422852%, 73.789978%)" offset="0.695312"/><stop stop-opacity="1" stop-color="rgb(15.040588%, 58.618164%, 73.829651%)" offset="0.699219"/><stop stop-opacity="1" stop-color="rgb(15.139771%, 58.815002%, 73.869324%)" offset="0.703125"/><stop stop-opacity="1" stop-color="rgb(15.238953%, 59.010315%, 73.908997%)" offset="0.710938"/><stop stop-opacity="1" stop-color="rgb(15.438843%, 59.40094%, 73.988342%)" offset="0.714844"/><stop stop-opacity="1" stop-color="rgb(15.538025%, 59.597778%, 74.028015%)" offset="0.71875"/><stop stop-opacity="1" stop-color="rgb(15.637207%, 59.793091%, 74.067688%)" offset="0.722656"/><stop stop-opacity="1" stop-color="rgb(15.736389%, 59.989929%, 74.108887%)" offset="0.726563"/><stop stop-opacity="1" stop-color="rgb(15.835571%, 60.185242%, 74.14856%)" offset="0.730469"/><stop stop-opacity="1" stop-color="rgb(15.936279%, 60.38208%, 74.188232%)" offset="0.734375"/><stop stop-opacity="1" stop-color="rgb(16.035461%, 60.577393%, 74.227905%)" offset="0.742188"/><stop stop-opacity="1" stop-color="rgb(16.233826%, 60.968018%, 74.307251%)" offset="0.746094"/><stop stop-opacity="1" stop-color="rgb(16.334534%, 61.164856%, 74.346924%)" offset="0.75"/><stop stop-opacity="1" stop-color="rgb(16.433716%, 61.360168%, 74.386597%)" offset="0.753906"/><stop stop-opacity="1" stop-color="rgb(16.532898%, 61.557007%, 74.427795%)" offset="0.757813"/><stop stop-opacity="1" stop-color="rgb(16.63208%, 61.752319%, 74.467468%)" offset="0.765625"/><stop stop-opacity="1" stop-color="rgb(16.830444%, 62.142944%, 74.546814%)" offset="0.769531"/><stop stop-opacity="1" stop-color="rgb(16.931152%, 62.339783%, 74.586487%)" offset="0.773438"/><stop stop-opacity="1" stop-color="rgb(17.030334%, 62.535095%, 74.62616%)" offset="0.777344"/><stop stop-opacity="1" stop-color="rgb(17.129517%, 62.731934%, 74.665833%)" offset="0.78125"/><stop stop-opacity="1" stop-color="rgb(17.228699%, 62.927246%, 74.705505%)" offset="0.789063"/><stop stop-opacity="1" stop-color="rgb(17.427063%, 63.317871%, 74.786377%)" offset="0.792969"/><stop stop-opacity="1" stop-color="rgb(17.527771%, 63.514709%, 74.82605%)" offset="0.796875"/><stop stop-opacity="1" stop-color="rgb(17.626953%, 63.710022%, 74.865723%)" offset="0.800781"/><stop stop-opacity="1" stop-color="rgb(17.726135%, 63.90686%, 74.905396%)" offset="0.804688"/><stop stop-opacity="1" stop-color="rgb(17.825317%, 64.102173%, 74.945068%)" offset="0.808594"/><stop stop-opacity="1" stop-color="rgb(17.9245%, 64.299011%, 74.984741%)" offset="0.8125"/><stop stop-opacity="1" stop-color="rgb(18.023682%, 64.494324%, 75.024414%)" offset="0.820312"/><stop stop-opacity="1" stop-color="rgb(18.223572%, 64.884949%, 75.105286%)" offset="0.824219"/><stop stop-opacity="1" stop-color="rgb(18.322754%, 65.081787%, 75.144958%)" offset="0.828125"/><stop stop-opacity="1" stop-color="rgb(18.421936%, 65.2771%, 75.184631%)" offset="0.832031"/><stop stop-opacity="1" stop-color="rgb(18.522644%, 65.473938%, 75.224304%)" offset="0.835937"/><stop stop-opacity="1" stop-color="rgb(18.621826%, 65.66925%, 75.263977%)" offset="0.84375"/><stop stop-opacity="1" stop-color="rgb(18.82019%, 66.059875%, 75.343323%)" offset="0.847656"/><stop stop-opacity="1" stop-color="rgb(18.919373%, 66.256714%, 75.384521%)" offset="0.851562"/><stop stop-opacity="1" stop-color="rgb(19.018555%, 66.452026%, 75.424194%)" offset="0.855469"/><stop stop-opacity="1" stop-color="rgb(19.119263%, 66.648865%, 75.463867%)" offset="0.859375"/><stop stop-opacity="1" stop-color="rgb(19.218445%, 66.844177%, 75.50354%)" offset="0.863281"/><stop stop-opacity="1" stop-color="rgb(19.317627%, 67.041016%, 75.543213%)" offset="0.867188"/><stop stop-opacity="1" stop-color="rgb(19.416809%, 67.236328%, 75.582886%)" offset="0.875"/><stop stop-opacity="1" stop-color="rgb(19.615173%, 67.626953%, 75.663757%)" offset="0.878906"/><stop stop-opacity="1" stop-color="rgb(19.715881%, 67.823792%, 75.70343%)" offset="0.882812"/><stop stop-opacity="1" stop-color="rgb(19.815063%, 68.019104%, 75.743103%)" offset="0.886719"/><stop stop-opacity="1" stop-color="rgb(19.914246%, 68.215942%, 75.782776%)" offset="0.890625"/><stop stop-opacity="1" stop-color="rgb(20.013428%, 68.411255%, 75.822449%)" offset="0.898438"/><stop stop-opacity="1" stop-color="rgb(20.211792%, 68.80188%, 75.901794%)" offset="0.902344"/><stop stop-opacity="1" stop-color="rgb(20.3125%, 68.998718%, 75.942993%)" offset="0.90625"/><stop stop-opacity="1" stop-color="rgb(20.411682%, 69.194031%, 75.982666%)" offset="0.910156"/><stop stop-opacity="1" stop-color="rgb(20.510864%, 69.390869%, 76.022339%)" offset="0.914063"/><stop stop-opacity="1" stop-color="rgb(20.610046%, 69.586182%, 76.062012%)" offset="0.921875"/><stop stop-opacity="1" stop-color="rgb(20.809937%, 69.976807%, 76.141357%)" offset="0.925781"/><stop stop-opacity="1" stop-color="rgb(20.909119%, 70.173645%, 76.18103%)" offset="0.929688"/><stop stop-opacity="1" stop-color="rgb(21.008301%, 70.368958%, 76.220703%)" offset="0.933594"/><stop stop-opacity="1" stop-color="rgb(21.107483%, 70.565796%, 76.261902%)" offset="0.9375"/><stop stop-opacity="1" stop-color="rgb(21.206665%, 70.761108%, 76.301575%)" offset="0.941406"/><stop stop-opacity="1" stop-color="rgb(21.307373%, 70.957947%, 76.341248%)" offset="0.945313"/><stop stop-opacity="1" stop-color="rgb(21.406555%, 71.153259%, 76.38092%)" offset="0.953125"/><stop stop-opacity="1" stop-color="rgb(21.604919%, 71.543884%, 76.460266%)" offset="0.957031"/><stop stop-opacity="1" stop-color="rgb(21.704102%, 71.740723%, 76.499939%)" offset="0.960938"/><stop stop-opacity="1" stop-color="rgb(21.803284%, 71.936035%, 76.539612%)" offset="0.964844"/><stop stop-opacity="1" stop-color="rgb(21.903992%, 72.132874%, 76.580811%)" offset="0.96875"/><stop stop-opacity="1" stop-color="rgb(22.003174%, 72.328186%, 76.620483%)" offset="0.976563"/><stop stop-opacity="1" stop-color="rgb(22.201538%, 72.718811%, 76.699829%)" offset="0.980469"/><stop stop-opacity="1" stop-color="rgb(22.30072%, 72.915649%, 76.739502%)" offset="0.984375"/><stop stop-opacity="1" stop-color="rgb(22.399902%, 73.110962%, 76.779175%)" offset="0.988281"/><stop stop-opacity="1" stop-color="rgb(22.50061%, 73.3078%, 76.818848%)" offset="0.992188"/><stop stop-opacity="1" stop-color="rgb(22.599792%, 73.503113%, 76.858521%)" offset="0.996094"/><stop stop-opacity="1" stop-color="rgb(22.698975%, 73.699951%, 76.899719%)" offset="1"/></linearGradient><clipPath id="b0784072fc"><path d="M 50 91 L 183 91 L 183 280 L 50 280 Z M 50 91 " clip-rule="nonzero"/></clipPath><clipPath id="9caa014019"><path d="M 99.402344 91.683594 L 212.160156 191.5625 L 133.964844 279.835938 L 21.207031 179.957031 Z M 99.402344 91.683594 " clip-rule="nonzero"/></clipPath><clipPath id="be742b6966"><path d="M 182.632812 165.410156 L 99.402344 91.683594 L 50.632812 206.023438 L 133.867188 279.75 Z M 182.632812 165.410156 " clip-rule="nonzero"/></clipPath><clipPath id="f339aa30c2"><path d="M 110 10 L 265 10 L 265 140 L 110 140 Z M 110 10 " clip-rule="nonzero"/></clipPath><clipPath id="c521ede6aa"><path d="M 242.992188 10.785156 L 264.484375 139.925781 L 120.714844 163.851562 L 99.222656 34.710938 Z M 242.992188 10.785156 " clip-rule="nonzero"/></clipPath><clipPath id="7e45d62508"><path d="M 110.269531 99.230469 L 264.484375 139.925781 L 242.992188 10.785156 Z M 110.269531 99.230469 " clip-rule="nonzero"/></clipPath><clipPath id="6644c818b3"><path d="M 242.992188 10.785156 L 264.484375 139.925781 L 121.21875 163.765625 L 99.726562 34.625 Z M 242.992188 10.785156 " clip-rule="nonzero"/></clipPath><clipPath id="7c05c16e50"><path d="M 242.996094 10.785156 L 264.488281 139.925781 L 121.019531 163.800781 L 99.527344 34.660156 Z M 242.996094 10.785156 " clip-rule="nonzero"/></clipPath><linearGradient x1="-42.603705" gradientTransform="matrix(0.0839482, 0.504458, -0.504458, 0.0839482, 242.997119, 10.784)" y1="142.201004" x2="255.999973" gradientUnits="userSpaceOnUse" y2="142.201004" id="14d70f036f"><stop stop-opacity="1" stop-color="rgb(0%, 28.999329%, 67.799377%)" offset="0"/><stop stop-opacity="1" stop-color="rgb(0%, 28.999329%, 67.799377%)" offset="0.125"/><stop stop-opacity="1" stop-color="rgb(0%, 28.999329%, 67.799377%)" offset="0.140625"/><stop stop-opacity="1" stop-color="rgb(0.0747681%, 29.148865%, 67.829895%)" offset="0.148438"/><stop stop-opacity="1" stop-color="rgb(0.254822%, 29.502869%, 67.901611%)" offset="0.152344"/><stop stop-opacity="1" stop-color="rgb(0.358582%, 29.707336%, 67.94281%)" offset="0.15625"/><stop stop-opacity="1" stop-color="rgb(0.462341%, 29.910278%, 67.984009%)" offset="0.160156"/><stop stop-opacity="1" stop-color="rgb(0.566101%, 30.114746%, 68.026733%)" offset="0.164062"/><stop stop-opacity="1" stop-color="rgb(0.668335%, 30.317688%, 68.067932%)" offset="0.167969"/><stop stop-opacity="1" stop-color="rgb(0.772095%, 30.522156%, 68.109131%)" offset="0.171875"/><stop stop-opacity="1" stop-color="rgb(0.875854%, 30.725098%, 68.15033%)" offset="0.175781"/><stop stop-opacity="1" stop-color="rgb(0.979614%, 30.929565%, 68.191528%)" offset="0.179688"/><stop stop-opacity="1" stop-color="rgb(1.081848%, 31.132507%, 68.232727%)" offset="0.183594"/><stop stop-opacity="1" stop-color="rgb(1.185608%, 31.336975%, 68.275452%)" offset="0.1875"/><stop stop-opacity="1" stop-color="rgb(1.289368%, 31.539917%, 68.31665%)" offset="0.191406"/><stop stop-opacity="1" stop-color="rgb(1.393127%, 31.744385%, 68.357849%)" offset="0.195312"/><stop stop-opacity="1" stop-color="rgb(1.495361%, 31.947327%, 68.399048%)" offset="0.199219"/><stop stop-opacity="1" stop-color="rgb(1.599121%, 32.150269%, 68.440247%)" offset="0.203125"/><stop stop-opacity="1" stop-color="rgb(1.702881%, 32.35321%, 68.481445%)" offset="0.207031"/><stop stop-opacity="1" stop-color="rgb(1.806641%, 32.557678%, 68.52417%)" offset="0.210938"/><stop stop-opacity="1" stop-color="rgb(1.9104%, 32.76062%, 68.565369%)" offset="0.214844"/><stop stop-opacity="1" stop-color="rgb(2.01416%, 32.965088%, 68.606567%)" offset="0.21875"/><stop stop-opacity="1" stop-color="rgb(2.116394%, 33.16803%, 68.647766%)" offset="0.222656"/><stop stop-opacity="1" stop-color="rgb(2.220154%, 33.372498%, 68.688965%)" offset="0.226562"/><stop stop-opacity="1" stop-color="rgb(2.323914%, 33.575439%, 68.730164%)" offset="0.230469"/><stop stop-opacity="1" stop-color="rgb(2.427673%, 33.779907%, 68.772888%)" offset="0.234375"/><stop stop-opacity="1" stop-color="rgb(2.529907%, 33.982849%, 68.814087%)" offset="0.238281"/><stop stop-opacity="1" stop-color="rgb(2.633667%, 34.187317%, 68.855286%)" offset="0.242188"/><stop stop-opacity="1" stop-color="rgb(2.737427%, 34.390259%, 68.896484%)" offset="0.246094"/><stop stop-opacity="1" stop-color="rgb(2.841187%, 34.594727%, 68.937683%)" offset="0.25"/><stop stop-opacity="1" stop-color="rgb(2.94342%, 34.797668%, 68.978882%)" offset="0.253906"/><stop stop-opacity="1" stop-color="rgb(3.04718%, 35.002136%, 69.021606%)" offset="0.257813"/><stop stop-opacity="1" stop-color="rgb(3.15094%, 35.205078%, 69.062805%)" offset="0.261719"/><stop stop-opacity="1" stop-color="rgb(3.2547%, 35.409546%, 69.104004%)" offset="0.265625"/><stop stop-opacity="1" stop-color="rgb(3.358459%, 35.612488%, 69.145203%)" offset="0.269531"/><stop stop-opacity="1" stop-color="rgb(3.462219%, 35.816956%, 69.187927%)" offset="0.273438"/><stop stop-opacity="1" stop-color="rgb(3.564453%, 36.019897%, 69.229126%)" offset="0.277344"/><stop stop-opacity="1" stop-color="rgb(3.668213%, 36.224365%, 69.270325%)" offset="0.28125"/><stop stop-opacity="1" stop-color="rgb(3.771973%, 36.427307%, 69.311523%)" offset="0.285156"/><stop stop-opacity="1" stop-color="rgb(3.875732%, 36.631775%, 69.352722%)" offset="0.289062"/><stop stop-opacity="1" stop-color="rgb(3.977966%, 36.834717%, 69.393921%)" offset="0.292969"/><stop stop-opacity="1" stop-color="rgb(4.081726%, 37.039185%, 69.436646%)" offset="0.296875"/><stop stop-opacity="1" stop-color="rgb(4.185486%, 37.242126%, 69.477844%)" offset="0.300781"/><stop stop-opacity="1" stop-color="rgb(4.289246%, 37.446594%, 69.519043%)" offset="0.304688"/><stop stop-opacity="1" stop-color="rgb(4.391479%, 37.649536%, 69.560242%)" offset="0.308594"/><stop stop-opacity="1" stop-color="rgb(4.495239%, 37.854004%, 69.60144%)" offset="0.3125"/><stop stop-opacity="1" stop-color="rgb(4.598999%, 38.056946%, 69.642639%)" offset="0.316406"/><stop stop-opacity="1" stop-color="rgb(4.702759%, 38.261414%, 69.685364%)" offset="0.320313"/><stop stop-opacity="1" stop-color="rgb(4.804993%, 38.464355%, 69.726562%)" offset="0.324219"/><stop stop-opacity="1" stop-color="rgb(4.908752%, 38.668823%, 69.767761%)" offset="0.328125"/><stop stop-opacity="1" stop-color="rgb(5.012512%, 38.871765%, 69.80896%)" offset="0.332031"/><stop stop-opacity="1" stop-color="rgb(5.116272%, 39.076233%, 69.850159%)" offset="0.335938"/><stop stop-opacity="1" stop-color="rgb(5.220032%, 39.279175%, 69.891357%)" offset="0.339844"/><stop stop-opacity="1" stop-color="rgb(5.323792%, 39.483643%, 69.934082%)" offset="0.34375"/><stop stop-opacity="1" stop-color="rgb(5.426025%, 39.686584%, 69.975281%)" offset="0.347656"/><stop stop-opacity="1" stop-color="rgb(5.529785%, 39.891052%, 70.016479%)" offset="0.351562"/><stop stop-opacity="1" stop-color="rgb(5.633545%, 40.093994%, 70.057678%)" offset="0.355469"/><stop stop-opacity="1" stop-color="rgb(5.737305%, 40.296936%, 70.098877%)" offset="0.359375"/><stop stop-opacity="1" stop-color="rgb(5.839539%, 40.499878%, 70.140076%)" offset="0.363281"/><stop stop-opacity="1" stop-color="rgb(5.943298%, 40.704346%, 70.1828%)" offset="0.367188"/><stop stop-opacity="1" stop-color="rgb(6.047058%, 40.907288%, 70.223999%)" offset="0.371094"/><stop stop-opacity="1" stop-color="rgb(6.150818%, 41.111755%, 70.265198%)" offset="0.375"/><stop stop-opacity="1" stop-color="rgb(6.253052%, 41.314697%, 70.306396%)" offset="0.378906"/><stop stop-opacity="1" stop-color="rgb(6.356812%, 41.519165%, 70.347595%)" offset="0.382813"/><stop stop-opacity="1" stop-color="rgb(6.460571%, 41.722107%, 70.388794%)" offset="0.386719"/><stop stop-opacity="1" stop-color="rgb(6.564331%, 41.926575%, 70.431519%)" offset="0.390625"/><stop stop-opacity="1" stop-color="rgb(6.668091%, 42.129517%, 70.472717%)" offset="0.394531"/><stop stop-opacity="1" stop-color="rgb(6.771851%, 42.333984%, 70.513916%)" offset="0.398438"/><stop stop-opacity="1" stop-color="rgb(6.874084%, 42.536926%, 70.555115%)" offset="0.402344"/><stop stop-opacity="1" stop-color="rgb(6.977844%, 42.741394%, 70.596313%)" offset="0.40625"/><stop stop-opacity="1" stop-color="rgb(7.081604%, 42.944336%, 70.637512%)" offset="0.410156"/><stop stop-opacity="1" stop-color="rgb(7.185364%, 43.148804%, 70.680237%)" offset="0.414062"/><stop stop-opacity="1" stop-color="rgb(7.287598%, 43.351746%, 70.721436%)" offset="0.417969"/><stop stop-opacity="1" stop-color="rgb(7.391357%, 43.556213%, 70.762634%)" offset="0.421875"/><stop stop-opacity="1" stop-color="rgb(7.495117%, 43.759155%, 70.803833%)" offset="0.425781"/><stop stop-opacity="1" stop-color="rgb(7.598877%, 43.963623%, 70.845032%)" offset="0.429688"/><stop stop-opacity="1" stop-color="rgb(7.701111%, 44.166565%, 70.88623%)" offset="0.433594"/><stop stop-opacity="1" stop-color="rgb(7.804871%, 44.371033%, 70.928955%)" offset="0.4375"/><stop stop-opacity="1" stop-color="rgb(7.90863%, 44.573975%, 70.970154%)" offset="0.441406"/><stop stop-opacity="1" stop-color="rgb(8.01239%, 44.778442%, 71.011353%)" offset="0.445313"/><stop stop-opacity="1" stop-color="rgb(8.11615%, 44.981384%, 71.052551%)" offset="0.449219"/><stop stop-opacity="1" stop-color="rgb(8.21991%, 45.185852%, 71.09375%)" offset="0.453125"/><stop stop-opacity="1" stop-color="rgb(8.322144%, 45.388794%, 71.134949%)" offset="0.457031"/><stop stop-opacity="1" stop-color="rgb(8.425903%, 45.593262%, 71.177673%)" offset="0.460938"/><stop stop-opacity="1" stop-color="rgb(8.529663%, 45.796204%, 71.218872%)" offset="0.464844"/><stop stop-opacity="1" stop-color="rgb(8.633423%, 46.000671%, 71.260071%)" offset="0.46875"/><stop stop-opacity="1" stop-color="rgb(8.735657%, 46.203613%, 71.30127%)" offset="0.472656"/><stop stop-opacity="1" stop-color="rgb(8.839417%, 46.408081%, 71.343994%)" offset="0.476562"/><stop stop-opacity="1" stop-color="rgb(8.943176%, 46.611023%, 71.385193%)" offset="0.480469"/><stop stop-opacity="1" stop-color="rgb(9.046936%, 46.815491%, 71.426392%)" offset="0.484375"/><stop stop-opacity="1" stop-color="rgb(9.14917%, 47.018433%, 71.46759%)" offset="0.488281"/><stop stop-opacity="1" stop-color="rgb(9.25293%, 47.2229%, 71.508789%)" offset="0.492188"/><stop stop-opacity="1" stop-color="rgb(9.356689%, 47.425842%, 71.549988%)" offset="0.496094"/><stop stop-opacity="1" stop-color="rgb(9.460449%, 47.63031%, 71.592712%)" offset="0.5"/><stop stop-opacity="1" stop-color="rgb(9.564209%, 47.833252%, 71.633911%)" offset="0.503906"/><stop stop-opacity="1" stop-color="rgb(9.667969%, 48.03772%, 71.67511%)" offset="0.507813"/><stop stop-opacity="1" stop-color="rgb(9.770203%, 48.240662%, 71.716309%)" offset="0.511719"/><stop stop-opacity="1" stop-color="rgb(9.873962%, 48.445129%, 71.757507%)" offset="0.515625"/><stop stop-opacity="1" stop-color="rgb(9.977722%, 48.648071%, 71.798706%)" offset="0.519531"/><stop stop-opacity="1" stop-color="rgb(10.081482%, 48.851013%, 71.841431%)" offset="0.523438"/><stop stop-opacity="1" stop-color="rgb(10.183716%, 49.053955%, 71.882629%)" offset="0.527344"/><stop stop-opacity="1" stop-color="rgb(10.287476%, 49.258423%, 71.923828%)" offset="0.53125"/><stop stop-opacity="1" stop-color="rgb(10.391235%, 49.461365%, 71.965027%)" offset="0.535156"/><stop stop-opacity="1" stop-color="rgb(10.494995%, 49.665833%, 72.006226%)" offset="0.539062"/><stop stop-opacity="1" stop-color="rgb(10.597229%, 49.868774%, 72.047424%)" offset="0.542969"/><stop stop-opacity="1" stop-color="rgb(10.700989%, 50.073242%, 72.090149%)" offset="0.546875"/><stop stop-opacity="1" stop-color="rgb(10.804749%, 50.276184%, 72.131348%)" offset="0.550781"/><stop stop-opacity="1" stop-color="rgb(10.908508%, 50.480652%, 72.172546%)" offset="0.554688"/><stop stop-opacity="1" stop-color="rgb(11.010742%, 50.683594%, 72.213745%)" offset="0.558594"/><stop stop-opacity="1" stop-color="rgb(11.114502%, 50.888062%, 72.254944%)" offset="0.5625"/><stop stop-opacity="1" stop-color="rgb(11.218262%, 51.091003%, 72.296143%)" offset="0.566406"/><stop stop-opacity="1" stop-color="rgb(11.322021%, 51.295471%, 72.338867%)" offset="0.570313"/><stop stop-opacity="1" stop-color="rgb(11.425781%, 51.498413%, 72.380066%)" offset="0.574219"/><stop stop-opacity="1" stop-color="rgb(11.529541%, 51.702881%, 72.421265%)" offset="0.578125"/><stop stop-opacity="1" stop-color="rgb(11.631775%, 51.905823%, 72.462463%)" offset="0.582031"/><stop stop-opacity="1" stop-color="rgb(11.735535%, 52.110291%, 72.503662%)" offset="0.585938"/><stop stop-opacity="1" stop-color="rgb(11.839294%, 52.313232%, 72.544861%)" offset="0.589844"/><stop stop-opacity="1" stop-color="rgb(11.943054%, 52.5177%, 72.587585%)" offset="0.59375"/><stop stop-opacity="1" stop-color="rgb(12.045288%, 52.720642%, 72.628784%)" offset="0.597656"/><stop stop-opacity="1" stop-color="rgb(12.149048%, 52.92511%, 72.669983%)" offset="0.601563"/><stop stop-opacity="1" stop-color="rgb(12.252808%, 53.128052%, 72.711182%)" offset="0.605469"/><stop stop-opacity="1" stop-color="rgb(12.356567%, 53.33252%, 72.75238%)" offset="0.609375"/><stop stop-opacity="1" stop-color="rgb(12.458801%, 53.535461%, 72.793579%)" offset="0.613281"/><stop stop-opacity="1" stop-color="rgb(12.562561%, 53.739929%, 72.836304%)" offset="0.617188"/><stop stop-opacity="1" stop-color="rgb(12.666321%, 53.942871%, 72.877502%)" offset="0.621094"/><stop stop-opacity="1" stop-color="rgb(12.770081%, 54.147339%, 72.918701%)" offset="0.625"/><stop stop-opacity="1" stop-color="rgb(12.87384%, 54.350281%, 72.9599%)" offset="0.628906"/><stop stop-opacity="1" stop-color="rgb(12.9776%, 54.554749%, 73.001099%)" offset="0.632813"/><stop stop-opacity="1" stop-color="rgb(13.079834%, 54.75769%, 73.042297%)" offset="0.636719"/><stop stop-opacity="1" stop-color="rgb(13.183594%, 54.962158%, 73.085022%)" offset="0.640625"/><stop stop-opacity="1" stop-color="rgb(13.287354%, 55.1651%, 73.126221%)" offset="0.644531"/><stop stop-opacity="1" stop-color="rgb(13.391113%, 55.369568%, 73.167419%)" offset="0.648438"/><stop stop-opacity="1" stop-color="rgb(13.493347%, 55.57251%, 73.208618%)" offset="0.652344"/><stop stop-opacity="1" stop-color="rgb(13.597107%, 55.776978%, 73.249817%)" offset="0.65625"/><stop stop-opacity="1" stop-color="rgb(13.700867%, 55.979919%, 73.291016%)" offset="0.660156"/><stop stop-opacity="1" stop-color="rgb(13.804626%, 56.184387%, 73.33374%)" offset="0.664063"/><stop stop-opacity="1" stop-color="rgb(13.90686%, 56.387329%, 73.374939%)" offset="0.667969"/><stop stop-opacity="1" stop-color="rgb(14.01062%, 56.591797%, 73.416138%)" offset="0.671875"/><stop stop-opacity="1" stop-color="rgb(14.11438%, 56.794739%, 73.457336%)" offset="0.675781"/><stop stop-opacity="1" stop-color="rgb(14.21814%, 56.999207%, 73.500061%)" offset="0.679688"/><stop stop-opacity="1" stop-color="rgb(14.321899%, 57.202148%, 73.54126%)" offset="0.683594"/><stop stop-opacity="1" stop-color="rgb(14.425659%, 57.40509%, 73.582458%)" offset="0.6875"/><stop stop-opacity="1" stop-color="rgb(14.527893%, 57.608032%, 73.623657%)" offset="0.691406"/><stop stop-opacity="1" stop-color="rgb(14.631653%, 57.8125%, 73.664856%)" offset="0.695313"/><stop stop-opacity="1" stop-color="rgb(14.735413%, 58.015442%, 73.706055%)" offset="0.699219"/><stop stop-opacity="1" stop-color="rgb(14.839172%, 58.21991%, 73.748779%)" offset="0.703125"/><stop stop-opacity="1" stop-color="rgb(14.941406%, 58.422852%, 73.789978%)" offset="0.707031"/><stop stop-opacity="1" stop-color="rgb(15.045166%, 58.627319%, 73.831177%)" offset="0.710938"/><stop stop-opacity="1" stop-color="rgb(15.148926%, 58.830261%, 73.872375%)" offset="0.714844"/><stop stop-opacity="1" stop-color="rgb(15.252686%, 59.034729%, 73.913574%)" offset="0.71875"/><stop stop-opacity="1" stop-color="rgb(15.354919%, 59.237671%, 73.954773%)" offset="0.722656"/><stop stop-opacity="1" stop-color="rgb(15.458679%, 59.442139%, 73.997498%)" offset="0.726563"/><stop stop-opacity="1" stop-color="rgb(15.562439%, 59.645081%, 74.038696%)" offset="0.730469"/><stop stop-opacity="1" stop-color="rgb(15.666199%, 59.849548%, 74.079895%)" offset="0.734375"/><stop stop-opacity="1" stop-color="rgb(15.768433%, 60.05249%, 74.121094%)" offset="0.738281"/><stop stop-opacity="1" stop-color="rgb(15.872192%, 60.256958%, 74.162292%)" offset="0.742188"/><stop stop-opacity="1" stop-color="rgb(15.975952%, 60.4599%, 74.203491%)" offset="0.746094"/><stop stop-opacity="1" stop-color="rgb(16.079712%, 60.664368%, 74.246216%)" offset="0.75"/><stop stop-opacity="1" stop-color="rgb(16.183472%, 60.86731%, 74.287415%)" offset="0.753906"/><stop stop-opacity="1" stop-color="rgb(16.287231%, 61.071777%, 74.328613%)" offset="0.757813"/><stop stop-opacity="1" stop-color="rgb(16.389465%, 61.274719%, 74.369812%)" offset="0.761719"/><stop stop-opacity="1" stop-color="rgb(16.493225%, 61.479187%, 74.411011%)" offset="0.765625"/><stop stop-opacity="1" stop-color="rgb(16.596985%, 61.682129%, 74.452209%)" offset="0.769531"/><stop stop-opacity="1" stop-color="rgb(16.700745%, 61.886597%, 74.494934%)" offset="0.773438"/><stop stop-opacity="1" stop-color="rgb(16.802979%, 62.089539%, 74.536133%)" offset="0.777344"/><stop stop-opacity="1" stop-color="rgb(16.906738%, 62.294006%, 74.577332%)" offset="0.78125"/><stop stop-opacity="1" stop-color="rgb(17.010498%, 62.496948%, 74.61853%)" offset="0.785156"/><stop stop-opacity="1" stop-color="rgb(17.114258%, 62.701416%, 74.659729%)" offset="0.789063"/><stop stop-opacity="1" stop-color="rgb(17.216492%, 62.904358%, 74.700928%)" offset="0.792969"/><stop stop-opacity="1" stop-color="rgb(17.320251%, 63.108826%, 74.743652%)" offset="0.796875"/><stop stop-opacity="1" stop-color="rgb(17.424011%, 63.311768%, 74.784851%)" offset="0.800781"/><stop stop-opacity="1" stop-color="rgb(17.527771%, 63.516235%, 74.82605%)" offset="0.804688"/><stop stop-opacity="1" stop-color="rgb(17.631531%, 63.719177%, 74.867249%)" offset="0.808594"/><stop stop-opacity="1" stop-color="rgb(17.735291%, 63.923645%, 74.908447%)" offset="0.8125"/><stop stop-opacity="1" stop-color="rgb(17.837524%, 64.126587%, 74.949646%)" offset="0.816406"/><stop stop-opacity="1" stop-color="rgb(17.941284%, 64.331055%, 74.992371%)" offset="0.820313"/><stop stop-opacity="1" stop-color="rgb(18.045044%, 64.533997%, 75.033569%)" offset="0.824219"/><stop stop-opacity="1" stop-color="rgb(18.148804%, 64.738464%, 75.074768%)" offset="0.828125"/><stop stop-opacity="1" stop-color="rgb(18.251038%, 64.941406%, 75.115967%)" offset="0.832031"/><stop stop-opacity="1" stop-color="rgb(18.354797%, 65.145874%, 75.157166%)" offset="0.835938"/><stop stop-opacity="1" stop-color="rgb(18.458557%, 65.348816%, 75.198364%)" offset="0.839844"/><stop stop-opacity="1" stop-color="rgb(18.562317%, 65.551758%, 75.241089%)" offset="0.84375"/><stop stop-opacity="1" stop-color="rgb(18.664551%, 65.7547%, 75.282288%)" offset="0.847656"/><stop stop-opacity="1" stop-color="rgb(18.768311%, 65.959167%, 75.323486%)" offset="0.851563"/><stop stop-opacity="1" stop-color="rgb(18.87207%, 66.162109%, 75.364685%)" offset="0.855469"/><stop stop-opacity="1" stop-color="rgb(18.97583%, 66.366577%, 75.405884%)" offset="0.859375"/><stop stop-opacity="1" stop-color="rgb(19.07959%, 66.569519%, 75.447083%)" offset="0.863281"/><stop stop-opacity="1" stop-color="rgb(19.18335%, 66.773987%, 75.489807%)" offset="0.867188"/><stop stop-opacity="1" stop-color="rgb(19.285583%, 66.976929%, 75.531006%)" offset="0.871094"/><stop stop-opacity="1" stop-color="rgb(19.389343%, 67.181396%, 75.572205%)" offset="0.875"/><stop stop-opacity="1" stop-color="rgb(19.493103%, 67.384338%, 75.613403%)" offset="0.878906"/><stop stop-opacity="1" stop-color="rgb(19.596863%, 67.588806%, 75.654602%)" offset="0.882813"/><stop stop-opacity="1" stop-color="rgb(19.699097%, 67.791748%, 75.695801%)" offset="0.886719"/><stop stop-opacity="1" stop-color="rgb(19.802856%, 67.996216%, 75.738525%)" offset="0.890625"/><stop stop-opacity="1" stop-color="rgb(19.906616%, 68.199158%, 75.779724%)" offset="0.894531"/><stop stop-opacity="1" stop-color="rgb(20.010376%, 68.403625%, 75.820923%)" offset="0.898438"/><stop stop-opacity="1" stop-color="rgb(20.11261%, 68.606567%, 75.862122%)" offset="0.902344"/><stop stop-opacity="1" stop-color="rgb(20.21637%, 68.811035%, 75.904846%)" offset="0.90625"/><stop stop-opacity="1" stop-color="rgb(20.320129%, 69.013977%, 75.946045%)" offset="0.910156"/><stop stop-opacity="1" stop-color="rgb(20.423889%, 69.218445%, 75.987244%)" offset="0.914063"/><stop stop-opacity="1" stop-color="rgb(20.527649%, 69.421387%, 76.028442%)" offset="0.917969"/><stop stop-opacity="1" stop-color="rgb(20.631409%, 69.625854%, 76.069641%)" offset="0.921875"/><stop stop-opacity="1" stop-color="rgb(20.733643%, 69.828796%, 76.11084%)" offset="0.925781"/><stop stop-opacity="1" stop-color="rgb(20.837402%, 70.033264%, 76.153564%)" offset="0.929688"/><stop stop-opacity="1" stop-color="rgb(20.941162%, 70.236206%, 76.194763%)" offset="0.933594"/><stop stop-opacity="1" stop-color="rgb(21.044922%, 70.440674%, 76.235962%)" offset="0.9375"/><stop stop-opacity="1" stop-color="rgb(21.147156%, 70.643616%, 76.277161%)" offset="0.941406"/><stop stop-opacity="1" stop-color="rgb(21.250916%, 70.848083%, 76.318359%)" offset="0.945313"/><stop stop-opacity="1" stop-color="rgb(21.354675%, 71.051025%, 76.359558%)" offset="0.949219"/><stop stop-opacity="1" stop-color="rgb(21.458435%, 71.255493%, 76.402283%)" offset="0.953125"/><stop stop-opacity="1" stop-color="rgb(21.560669%, 71.458435%, 76.443481%)" offset="0.957031"/><stop stop-opacity="1" stop-color="rgb(21.664429%, 71.662903%, 76.48468%)" offset="0.960938"/><stop stop-opacity="1" stop-color="rgb(21.768188%, 71.865845%, 76.525879%)" offset="0.964844"/><stop stop-opacity="1" stop-color="rgb(21.871948%, 72.070312%, 76.567078%)" offset="0.96875"/><stop stop-opacity="1" stop-color="rgb(21.974182%, 72.273254%, 76.608276%)" offset="0.972656"/><stop stop-opacity="1" stop-color="rgb(22.077942%, 72.477722%, 76.651001%)" offset="0.976562"/><stop stop-opacity="1" stop-color="rgb(22.181702%, 72.680664%, 76.6922%)" offset="0.980469"/><stop stop-opacity="1" stop-color="rgb(22.285461%, 72.885132%, 76.733398%)" offset="0.984375"/><stop stop-opacity="1" stop-color="rgb(22.389221%, 73.088074%, 76.774597%)" offset="0.988281"/><stop stop-opacity="1" stop-color="rgb(22.492981%, 73.292542%, 76.815796%)" offset="0.992188"/><stop stop-opacity="1" stop-color="rgb(22.595215%, 73.495483%, 76.856995%)" offset="0.996094"/><stop stop-opacity="1" stop-color="rgb(22.698975%, 73.699951%, 76.899719%)" offset="1"/></linearGradient><clipPath id="bfb9eb1103"><path d="M 188 0 L 319 0 L 319 150 L 188 150 Z M 188 0 " clip-rule="nonzero"/></clipPath><clipPath id="f61ca2ff0d"><path d="M 275.441406 149.605469 L 157.996094 55.28125 L 231.84375 -36.664062 L 349.285156 57.660156 Z M 275.441406 149.605469 " clip-rule="nonzero"/></clipPath><clipPath id="f246a21f74"><path d="M 188.75 79.980469 L 275.441406 149.605469 L 318.636719 33.046875 L 231.949219 -36.578125 Z M 188.75 79.980469 " clip-rule="nonzero"/></clipPath></defs><rect x="-37.5" width="450" fill="#ffffff" y="-37.499999" height="449.999989" fill-opacity="1"/><rect x="-37.5" width="450" fill="#ffffff" y="-37.499999" height="449.999989" fill-opacity="1"/><g clip-path="url(#0237719fdd)"><g clip-path="url(#42b49c9031)"><g clip-path="url(#4734ce89d4)"><g clip-path="url(#2bd8e827bb)"><g clip-path="url(#9f79d7a9a0)"><path fill="url(#f4baffe019)" d="M 112 247.238281 L 277.042969 227.898438 L 259.953125 82.050781 L 94.90625 101.394531 Z M 112 247.238281 " fill-rule="nonzero"/></g></g></g></g></g><g clip-path="url(#b0784072fc)"><g clip-path="url(#9caa014019)"><g clip-path="url(#be742b6966)"><path fill="#ffffff" d="M 99.402344 91.683594 L 212.160156 191.5625 L 133.964844 279.835938 L 21.207031 179.957031 Z M 99.402344 91.683594 " fill-opacity="1" fill-rule="nonzero"/></g></g></g><g clip-path="url(#f339aa30c2)"><g clip-path="url(#c521ede6aa)"><g clip-path="url(#7e45d62508)"><g clip-path="url(#6644c818b3)"><g clip-path="url(#7c05c16e50)"><path fill="url(#14d70f036f)" d="M 260.328125 -14.1875 L 89.359375 14.265625 L 114.425781 164.898438 L 285.394531 136.445312 Z M 260.328125 -14.1875 " fill-rule="nonzero"/></g></g></g></g></g><g clip-path="url(#bfb9eb1103)"><g clip-path="url(#f61ca2ff0d)"><g clip-path="url(#f246a21f74)"><path fill="#ffffff" d="M 275.441406 149.605469 L 157.996094 55.28125 L 231.84375 -36.664062 L 349.285156 57.660156 Z M 275.441406 149.605469 " fill-opacity="1" fill-rule="nonzero"/></g></g></g><g fill="#2b61b2" fill-opacity="1"><g transform="translate(18.345706, 226.250025)"><g><path d="M 29.046875 -5.59375 C 28.671875 -4.445312 28.035156 -3.476562 27.140625 -2.6875 C 26.242188 -1.90625 25.1875 -1.273438 23.96875 -0.796875 C 22.757812 -0.316406 21.46875 0.0234375 20.09375 0.234375 C 18.726562 0.453125 17.363281 0.5625 16 0.5625 C 15.363281 0.5625 14.75 0.546875 14.15625 0.515625 C 12.90625 0.441406 11.601562 0.257812 10.25 -0.03125 C 8.90625 -0.332031 7.65625 -0.734375 6.5 -1.234375 C 5.34375 -1.742188 4.363281 -2.378906 3.5625 -3.140625 C 2.757812 -3.898438 2.265625 -4.800781 2.078125 -5.84375 C 1.390625 -9.625 5.46875 -13.539062 14.3125 -17.59375 C 14.6875 -17.78125 15.050781 -17.753906 15.40625 -17.515625 C 15.71875 -17.304688 15.863281 -16.988281 15.84375 -16.5625 C 15.789062 -16.15625 15.578125 -15.875 15.203125 -15.71875 C 12.535156 -14.488281 10.441406 -13.359375 8.921875 -12.328125 C 7.398438 -11.304688 6.289062 -10.394531 5.59375 -9.59375 C 4.90625 -8.800781 4.476562 -8.117188 4.3125 -7.546875 C 4.15625 -6.972656 4.101562 -6.535156 4.15625 -6.234375 C 4.289062 -5.441406 4.816406 -4.71875 5.734375 -4.0625 C 6.660156 -3.40625 7.867188 -2.859375 9.359375 -2.421875 C 10.847656 -1.984375 12.5 -1.707031 14.3125 -1.59375 C 15.625 -1.488281 16.96875 -1.503906 18.34375 -1.640625 C 19.71875 -1.773438 21.007812 -2.023438 22.21875 -2.390625 C 23.4375 -2.765625 24.46875 -3.269531 25.3125 -3.90625 C 26.164062 -4.550781 26.742188 -5.328125 27.046875 -6.234375 C 27.523438 -7.703125 27.5625 -9.175781 27.15625 -10.65625 C 26.757812 -12.132812 26.066406 -13.609375 25.078125 -15.078125 C 24.085938 -16.546875 22.921875 -18.003906 21.578125 -19.453125 C 20.234375 -20.910156 18.851562 -22.347656 17.4375 -23.765625 C 15.914062 -25.304688 14.441406 -26.863281 13.015625 -28.4375 C 11.585938 -30.007812 10.378906 -31.59375 9.390625 -33.1875 C 8.410156 -34.789062 7.789062 -36.410156 7.53125 -38.046875 C 7.28125 -39.691406 7.570312 -41.359375 8.40625 -43.046875 C 9.382812 -45.015625 11.0625 -46.351562 13.4375 -47.0625 C 15.8125 -47.769531 18.734375 -47.800781 22.203125 -47.15625 C 24.097656 -46.78125 26.035156 -46.234375 28.015625 -45.515625 C 30.003906 -44.796875 31.90625 -43.941406 33.71875 -42.953125 C 35.53125 -41.972656 37.171875 -40.910156 38.640625 -39.765625 C 40.109375 -38.617188 41.285156 -37.421875 42.171875 -36.171875 C 43.066406 -34.929688 43.570312 -33.710938 43.6875 -32.515625 C 43.738281 -31.898438 43.648438 -31.234375 43.421875 -30.515625 C 43.191406 -29.796875 42.703125 -29.082031 41.953125 -28.375 C 41.210938 -27.664062 40.09375 -27.019531 38.59375 -26.4375 C 34.539062 -25.320312 30.4375 -25.070312 26.28125 -25.6875 C 26.007812 -25.738281 25.785156 -25.875 25.609375 -26.09375 C 25.441406 -26.320312 25.375 -26.570312 25.40625 -26.84375 C 25.457031 -27.132812 25.59375 -27.363281 25.8125 -27.53125 C 26.039062 -27.707031 26.289062 -27.785156 26.5625 -27.765625 C 30.375 -27.203125 34.132812 -27.414062 37.84375 -28.40625 C 40.476562 -29.414062 41.726562 -30.71875 41.59375 -32.3125 C 41.519531 -33.226562 41.085938 -34.191406 40.296875 -35.203125 C 39.515625 -36.210938 38.460938 -37.222656 37.140625 -38.234375 C 35.816406 -39.253906 34.320312 -40.21875 32.65625 -41.125 C 30.988281 -42.03125 29.226562 -42.828125 27.375 -43.515625 C 25.519531 -44.210938 23.660156 -44.734375 21.796875 -45.078125 C 20.941406 -45.234375 19.960938 -45.359375 18.859375 -45.453125 C 17.753906 -45.546875 16.640625 -45.519531 15.515625 -45.375 C 14.398438 -45.226562 13.375 -44.898438 12.4375 -44.390625 C 11.507812 -43.890625 10.789062 -43.132812 10.28125 -42.125 C 9.613281 -40.757812 9.410156 -39.394531 9.671875 -38.03125 C 9.941406 -36.675781 10.53125 -35.289062 11.4375 -33.875 C 12.34375 -32.46875 13.457031 -31.050781 14.78125 -29.625 C 16.101562 -28.195312 17.492188 -26.734375 18.953125 -25.234375 C 20.472656 -23.691406 21.953125 -22.132812 23.390625 -20.5625 C 24.835938 -18.988281 26.085938 -17.382812 27.140625 -15.75 C 28.191406 -14.125 28.910156 -12.472656 29.296875 -10.796875 C 29.679688 -9.117188 29.597656 -7.382812 29.046875 -5.59375 Z M 29.046875 -5.59375 "/></g></g></g><g fill="#2b61b2" fill-opacity="1"><g transform="translate(52.422319, 226.250025)"><g><path d="M 33.046875 -9.484375 C 33.253906 -9.296875 33.34375 -9.054688 33.3125 -8.765625 C 33.3125 -8.460938 33.207031 -8.207031 33 -8 C 31.53125 -6.582031 29.84375 -5.394531 27.9375 -4.4375 C 26.03125 -3.476562 24.035156 -2.71875 21.953125 -2.15625 C 19.878906 -1.59375 17.851562 -1.210938 15.875 -1.015625 C 13.90625 -0.816406 12.109375 -0.785156 10.484375 -0.921875 C 8.859375 -1.054688 7.550781 -1.320312 6.5625 -1.71875 C 5.601562 -2.09375 4.96875 -2.539062 4.65625 -3.0625 C 4.351562 -3.582031 4.1875 -4.039062 4.15625 -4.4375 C 4.15625 -4.488281 4.117188 -4.507812 4.046875 -4.5 C 3.984375 -4.488281 3.914062 -4.441406 3.84375 -4.359375 C 2.53125 -3.109375 1.367188 -1.722656 0.359375 -0.203125 C 0.0351562 0.222656 -0.375 0.34375 -0.875 0.15625 C -1.382812 -0.03125 -1.613281 -0.390625 -1.5625 -0.921875 C -1.289062 -3.847656 -0.972656 -6.816406 -0.609375 -9.828125 C -0.253906 -12.847656 0.171875 -15.742188 0.671875 -18.515625 C 1.179688 -21.296875 1.78125 -23.804688 2.46875 -26.046875 C 3.164062 -28.285156 3.972656 -30.117188 4.890625 -31.546875 C 5.816406 -32.972656 6.894531 -33.832031 8.125 -34.125 C 8.65625 -34.332031 9.207031 -34.363281 9.78125 -34.21875 C 10.351562 -34.070312 10.828125 -33.769531 11.203125 -33.3125 C 11.648438 -32.675781 11.800781 -31.742188 11.65625 -30.515625 C 11.507812 -29.296875 11.144531 -27.894531 10.5625 -26.3125 C 9.976562 -24.738281 9.273438 -23.097656 8.453125 -21.390625 C 7.640625 -19.691406 6.785156 -18.019531 5.890625 -16.375 C 5.003906 -14.738281 4.160156 -13.253906 3.359375 -11.921875 C 2.554688 -10.585938 1.914062 -9.519531 1.4375 -8.71875 C 1.382812 -8.664062 1.359375 -8.640625 1.359375 -8.640625 C 1.253906 -7.753906 1.148438 -6.847656 1.046875 -5.921875 C 1.015625 -5.648438 1.117188 -5.460938 1.359375 -5.359375 C 1.597656 -5.222656 1.8125 -5.265625 2 -5.484375 C 3.625 -7.078125 5.175781 -8.3125 6.65625 -9.1875 C 8.132812 -10.070312 9.425781 -10.660156 10.53125 -10.953125 C 11.644531 -11.253906 12.414062 -11.335938 12.84375 -11.203125 C 13.375 -10.984375 13.640625 -10.597656 13.640625 -10.046875 C 13.609375 -9.585938 13.394531 -9.257812 13 -9.0625 C 12.601562 -8.863281 12.164062 -8.707031 11.6875 -8.59375 C 9.550781 -7.5625 8.113281 -6.691406 7.375 -5.984375 C 6.644531 -5.273438 6.28125 -4.785156 6.28125 -4.515625 C 6.28125 -4.222656 6.640625 -3.929688 7.359375 -3.640625 C 8.210938 -3.296875 9.382812 -3.066406 10.875 -2.953125 C 12.375 -2.847656 14.03125 -2.894531 15.84375 -3.09375 C 17.65625 -3.300781 19.519531 -3.660156 21.4375 -4.171875 C 23.351562 -4.691406 25.1875 -5.390625 26.9375 -6.265625 C 28.6875 -7.148438 30.226562 -8.234375 31.5625 -9.515625 C 31.769531 -9.734375 32.019531 -9.832031 32.3125 -9.8125 C 32.613281 -9.800781 32.859375 -9.691406 33.046875 -9.484375 Z M 8.59375 -32.078125 C 8.144531 -31.972656 7.671875 -31.648438 7.171875 -31.109375 C 6.679688 -30.578125 6.171875 -29.734375 5.640625 -28.578125 C 5.109375 -27.421875 4.582031 -25.867188 4.0625 -23.921875 C 3.539062 -21.972656 3.023438 -19.53125 2.515625 -16.59375 C 2.460938 -16.332031 2.570312 -16.148438 2.84375 -16.046875 C 3.101562 -15.960938 3.300781 -16.039062 3.4375 -16.28125 C 5.039062 -19.132812 6.332031 -21.679688 7.3125 -23.921875 C 8.300781 -26.160156 8.984375 -27.984375 9.359375 -29.390625 C 9.734375 -30.804688 9.785156 -31.703125 9.515625 -32.078125 C 9.460938 -32.128906 9.359375 -32.15625 9.203125 -32.15625 C 8.984375 -32.15625 8.78125 -32.128906 8.59375 -32.078125 Z M 8.59375 -32.078125 "/></g></g></g><g fill="#2b61b2" fill-opacity="1"><g transform="translate(83.939185, 226.250025)"><g><path d="M 25.921875 -10.796875 C 26.128906 -10.609375 26.234375 -10.367188 26.234375 -10.078125 C 26.234375 -9.785156 26.140625 -9.53125 25.953125 -9.3125 C 25.847656 -9.238281 25.441406 -8.867188 24.734375 -8.203125 C 24.035156 -7.535156 23.101562 -6.738281 21.9375 -5.8125 C 20.78125 -4.894531 19.453125 -3.984375 17.953125 -3.078125 C 16.460938 -2.171875 14.867188 -1.414062 13.171875 -0.8125 C 11.484375 -0.21875 9.785156 0.078125 8.078125 0.078125 C 5.628906 0.109375 3.429688 -0.609375 1.484375 -2.078125 C 0.679688 -2.660156 0.132812 -3.351562 -0.15625 -4.15625 C -0.445312 -4.957031 -0.570312 -5.785156 -0.53125 -6.640625 C -0.5 -7.492188 -0.375 -8.289062 -0.15625 -9.03125 C 0.0507812 -9.78125 0.253906 -10.394531 0.453125 -10.875 C 0.660156 -11.351562 0.773438 -11.625 0.796875 -11.6875 C 0.960938 -11.925781 1.175781 -12.082031 1.4375 -12.15625 C 1.707031 -12.238281 1.960938 -12.210938 2.203125 -12.078125 C 2.460938 -11.941406 2.640625 -11.738281 2.734375 -11.46875 C 2.828125 -11.207031 2.8125 -10.957031 2.6875 -10.71875 C 2.6875 -10.695312 2.601562 -10.507812 2.4375 -10.15625 C 2.28125 -9.8125 2.113281 -9.359375 1.9375 -8.796875 C 1.769531 -8.234375 1.648438 -7.640625 1.578125 -7.015625 C 1.515625 -6.390625 1.5625 -5.78125 1.71875 -5.1875 C 1.875 -4.601562 2.207031 -4.128906 2.71875 -3.765625 C 3.945312 -2.859375 5.25 -2.3125 6.625 -2.125 C 8 -1.9375 9.378906 -2.007812 10.765625 -2.34375 C 12.148438 -2.675781 13.507812 -3.164062 14.84375 -3.8125 C 16.175781 -4.46875 17.414062 -5.1875 18.5625 -5.96875 C 19.707031 -6.757812 20.71875 -7.515625 21.59375 -8.234375 C 22.476562 -8.953125 23.164062 -9.550781 23.65625 -10.03125 C 24.15625 -10.519531 24.414062 -10.773438 24.4375 -10.796875 C 24.65625 -11.015625 24.898438 -11.125 25.171875 -11.125 C 25.453125 -11.125 25.703125 -11.015625 25.921875 -10.796875 Z M 0.359375 -13.953125 C -0.171875 -13.953125 -0.503906 -14.222656 -0.640625 -14.765625 C -0.773438 -15.296875 -0.601562 -15.691406 -0.125 -15.953125 C 0.625 -16.328125 1.289062 -16.820312 1.875 -17.4375 C 2.09375 -17.65625 2.34375 -17.765625 2.625 -17.765625 C 2.90625 -17.765625 3.148438 -17.671875 3.359375 -17.484375 C 3.578125 -17.265625 3.691406 -17.015625 3.703125 -16.734375 C 3.710938 -16.453125 3.613281 -16.207031 3.40625 -16 C 2.65625 -15.226562 1.8125 -14.601562 0.875 -14.125 C 0.71875 -14.007812 0.546875 -13.953125 0.359375 -13.953125 Z M 0.359375 -13.953125 "/></g></g></g><g fill="#2b61b2" fill-opacity="1"><g transform="translate(108.496739, 226.250025)"><g><path d="M 27.515625 -10.28125 C 27.734375 -10.0625 27.84375 -9.804688 27.84375 -9.515625 C 27.84375 -9.222656 27.734375 -8.972656 27.515625 -8.765625 C 27.441406 -8.679688 27.050781 -8.316406 26.34375 -7.671875 C 25.632812 -7.035156 24.707031 -6.273438 23.5625 -5.390625 C 22.414062 -4.515625 21.109375 -3.632812 19.640625 -2.75 C 18.171875 -1.875 16.628906 -1.144531 15.015625 -0.5625 C 13.398438 0.0195312 11.78125 0.3125 10.15625 0.3125 C 9.175781 0.3125 8.21875 0.179688 7.28125 -0.078125 C 5.550781 -0.585938 4.101562 -1.632812 2.9375 -3.21875 C 1.78125 -4.800781 0.9375 -6.847656 0.40625 -9.359375 C 0.34375 -9.492188 0.3125 -9.628906 0.3125 -9.765625 C 0.0703125 -11.066406 -0.0820312 -12.382812 -0.15625 -13.71875 C -0.238281 -15.445312 -0.207031 -17.257812 -0.0625 -19.15625 C 0.0820312 -21.050781 0.328125 -22.910156 0.671875 -24.734375 C 1.023438 -26.566406 1.472656 -28.257812 2.015625 -29.8125 C 2.566406 -31.375 3.179688 -32.6875 3.859375 -33.75 C 4.535156 -34.820312 5.289062 -35.546875 6.125 -35.921875 C 6.675781 -36.160156 7.257812 -36.195312 7.875 -36.03125 C 8.488281 -35.875 8.984375 -35.554688 9.359375 -35.078125 C 9.941406 -34.460938 10.253906 -33.578125 10.296875 -32.421875 C 10.335938 -31.265625 10.195312 -29.9375 9.875 -28.4375 C 9.5625 -26.945312 9.125 -25.375 8.5625 -23.71875 C 8 -22.0625 7.382812 -20.429688 6.71875 -18.828125 C 6.050781 -17.234375 5.394531 -15.742188 4.75 -14.359375 C 4.113281 -12.972656 3.570312 -11.8125 3.125 -10.875 C 2.695312 -10 2.613281 -9.109375 2.875 -8.203125 C 3.28125 -6.816406 3.875 -5.554688 4.65625 -4.421875 C 5.445312 -3.285156 6.519531 -2.503906 7.875 -2.078125 C 9.132812 -1.703125 10.445312 -1.632812 11.8125 -1.875 C 13.1875 -2.113281 14.546875 -2.546875 15.890625 -3.171875 C 17.242188 -3.804688 18.523438 -4.515625 19.734375 -5.296875 C 20.953125 -6.085938 22.023438 -6.851562 22.953125 -7.59375 C 23.890625 -8.34375 24.628906 -8.96875 25.171875 -9.46875 C 25.722656 -9.976562 26.015625 -10.25 26.046875 -10.28125 C 26.253906 -10.46875 26.503906 -10.5625 26.796875 -10.5625 C 27.066406 -10.5625 27.304688 -10.46875 27.515625 -10.28125 Z M 2.078125 -14.3125 C 2.109375 -14.132812 2.203125 -14.007812 2.359375 -13.9375 C 2.515625 -13.875 2.648438 -13.921875 2.765625 -14.078125 C 3.109375 -14.640625 3.503906 -15.46875 3.953125 -16.5625 C 4.410156 -17.65625 4.878906 -18.894531 5.359375 -20.28125 C 5.835938 -21.664062 6.273438 -23.078125 6.671875 -24.515625 C 7.078125 -25.960938 7.410156 -27.320312 7.671875 -28.59375 C 7.941406 -29.875 8.101562 -30.96875 8.15625 -31.875 C 8.207031 -32.78125 8.101562 -33.367188 7.84375 -33.640625 C 7.601562 -33.910156 7.375 -34.046875 7.15625 -34.046875 C 7.082031 -34.046875 7.003906 -34.03125 6.921875 -34 C 6.515625 -33.8125 6.050781 -33.238281 5.53125 -32.28125 C 5.019531 -31.320312 4.507812 -30.109375 4 -28.640625 C 3.488281 -27.171875 3.039062 -25.582031 2.65625 -23.875 C 2.269531 -22.164062 2.007812 -20.476562 1.875 -18.8125 C 1.75 -17.144531 1.816406 -15.644531 2.078125 -14.3125 Z M 2.078125 -14.3125 "/></g></g></g><g fill="#2b61b2" fill-opacity="1"><g transform="translate(134.854117, 226.250025)"><g><path d="M 27.515625 -10.28125 C 27.734375 -10.0625 27.84375 -9.804688 27.84375 -9.515625 C 27.84375 -9.222656 27.734375 -8.972656 27.515625 -8.765625 C 27.441406 -8.679688 27.050781 -8.316406 26.34375 -7.671875 C 25.632812 -7.035156 24.707031 -6.273438 23.5625 -5.390625 C 22.414062 -4.515625 21.109375 -3.632812 19.640625 -2.75 C 18.171875 -1.875 16.628906 -1.144531 15.015625 -0.5625 C 13.398438 0.0195312 11.78125 0.3125 10.15625 0.3125 C 9.175781 0.3125 8.21875 0.179688 7.28125 -0.078125 C 5.550781 -0.585938 4.101562 -1.632812 2.9375 -3.21875 C 1.78125 -4.800781 0.9375 -6.847656 0.40625 -9.359375 C 0.34375 -9.492188 0.3125 -9.628906 0.3125 -9.765625 C 0.0703125 -11.066406 -0.0820312 -12.382812 -0.15625 -13.71875 C -0.238281 -15.445312 -0.207031 -17.257812 -0.0625 -19.15625 C 0.0820312 -21.050781 0.328125 -22.910156 0.671875 -24.734375 C 1.023438 -26.566406 1.472656 -28.257812 2.015625 -29.8125 C 2.566406 -31.375 3.179688 -32.6875 3.859375 -33.75 C 4.535156 -34.820312 5.289062 -35.546875 6.125 -35.921875 C 6.675781 -36.160156 7.257812 -36.195312 7.875 -36.03125 C 8.488281 -35.875 8.984375 -35.554688 9.359375 -35.078125 C 9.941406 -34.460938 10.253906 -33.578125 10.296875 -32.421875 C 10.335938 -31.265625 10.195312 -29.9375 9.875 -28.4375 C 9.5625 -26.945312 9.125 -25.375 8.5625 -23.71875 C 8 -22.0625 7.382812 -20.429688 6.71875 -18.828125 C 6.050781 -17.234375 5.394531 -15.742188 4.75 -14.359375 C 4.113281 -12.972656 3.570312 -11.8125 3.125 -10.875 C 2.695312 -10 2.613281 -9.109375 2.875 -8.203125 C 3.28125 -6.816406 3.875 -5.554688 4.65625 -4.421875 C 5.445312 -3.285156 6.519531 -2.503906 7.875 -2.078125 C 9.132812 -1.703125 10.445312 -1.632812 11.8125 -1.875 C 13.1875 -2.113281 14.546875 -2.546875 15.890625 -3.171875 C 17.242188 -3.804688 18.523438 -4.515625 19.734375 -5.296875 C 20.953125 -6.085938 22.023438 -6.851562 22.953125 -7.59375 C 23.890625 -8.34375 24.628906 -8.96875 25.171875 -9.46875 C 25.722656 -9.976562 26.015625 -10.25 26.046875 -10.28125 C 26.253906 -10.46875 26.503906 -10.5625 26.796875 -10.5625 C 27.066406 -10.5625 27.304688 -10.46875 27.515625 -10.28125 Z M 2.078125 -14.3125 C 2.109375 -14.132812 2.203125 -14.007812 2.359375 -13.9375 C 2.515625 -13.875 2.648438 -13.921875 2.765625 -14.078125 C 3.109375 -14.640625 3.503906 -15.46875 3.953125 -16.5625 C 4.410156 -17.65625 4.878906 -18.894531 5.359375 -20.28125 C 5.835938 -21.664062 6.273438 -23.078125 6.671875 -24.515625 C 7.078125 -25.960938 7.410156 -27.320312 7.671875 -28.59375 C 7.941406 -29.875 8.101562 -30.96875 8.15625 -31.875 C 8.207031 -32.78125 8.101562 -33.367188 7.84375 -33.640625 C 7.601562 -33.910156 7.375 -34.046875 7.15625 -34.046875 C 7.082031 -34.046875 7.003906 -34.03125 6.921875 -34 C 6.515625 -33.8125 6.050781 -33.238281 5.53125 -32.28125 C 5.019531 -31.320312 4.507812 -30.109375 4 -28.640625 C 3.488281 -27.171875 3.039062 -25.582031 2.65625 -23.875 C 2.269531 -22.164062 2.007812 -20.476562 1.875 -18.8125 C 1.75 -17.144531 1.816406 -15.644531 2.078125 -14.3125 Z M 2.078125 -14.3125 "/></g></g></g><g fill="#2b61b2" fill-opacity="1"><g transform="translate(161.211495, 226.250025)"><g><path d="M 25.484375 -1.359375 C 20.921875 0.554688 16.171875 1.597656 11.234375 1.765625 C 9.210938 1.765625 7.507812 1.550781 6.125 1.125 C 4.738281 0.695312 3.628906 0.191406 2.796875 -0.390625 C 1.972656 -0.984375 1.414062 -1.535156 1.125 -2.046875 C 0.769531 -2.492188 0.613281 -3 0.65625 -3.5625 C 0.695312 -4.125 0.914062 -4.601562 1.3125 -5 C 2.40625 -6.175781 3.882812 -6.863281 5.75 -7.0625 C 7.625 -7.257812 9.804688 -7.15625 12.296875 -6.75 C 14.796875 -6.351562 17.507812 -5.847656 20.4375 -5.234375 C 21.207031 -5.078125 21.992188 -4.910156 22.796875 -4.734375 C 23.597656 -4.566406 24.398438 -4.398438 25.203125 -4.234375 C 26.023438 -4.109375 26.820312 -4.203125 27.59375 -4.515625 L 28.15625 -4.796875 C 31.28125 -6.210938 34.285156 -8.1875 37.171875 -10.71875 C 40.066406 -13.25 42.847656 -16.007812 45.515625 -19 C 45.734375 -19.269531 45.773438 -19.5625 45.640625 -19.875 C 45.484375 -20.164062 45.226562 -20.3125 44.875 -20.3125 C 41.675781 -20.289062 38.992188 -20.550781 36.828125 -21.09375 C 34.671875 -21.644531 32.941406 -22.363281 31.640625 -23.25 C 30.335938 -24.144531 29.34375 -25.097656 28.65625 -26.109375 C 27.976562 -27.128906 27.503906 -28.078125 27.234375 -28.953125 C 26.785156 -30.503906 26.703125 -32.144531 26.984375 -33.875 C 27.265625 -35.613281 27.859375 -37.316406 28.765625 -38.984375 C 29.671875 -40.648438 30.828125 -42.175781 32.234375 -43.5625 C 33.648438 -44.945312 35.265625 -46.078125 37.078125 -46.953125 C 37.347656 -47.066406 37.613281 -47.078125 37.875 -46.984375 C 38.144531 -46.890625 38.347656 -46.707031 38.484375 -46.4375 C 38.617188 -46.195312 38.640625 -45.9375 38.546875 -45.65625 C 38.453125 -45.375 38.269531 -45.171875 38 -45.046875 C 36.425781 -44.296875 35.019531 -43.316406 33.78125 -42.109375 C 32.539062 -40.910156 31.515625 -39.582031 30.703125 -38.125 C 29.890625 -36.675781 29.347656 -35.210938 29.078125 -33.734375 C 28.816406 -32.253906 28.882812 -30.863281 29.28125 -29.5625 C 30.03125 -27 31.957031 -25.109375 35.0625 -23.890625 C 38.164062 -22.679688 42.1875 -22.222656 47.125 -22.515625 C 48.164062 -22.597656 49.003906 -23.023438 49.640625 -23.796875 C 50.359375 -24.679688 51.078125 -25.554688 51.796875 -26.421875 C 52.515625 -27.285156 53.222656 -28.160156 53.921875 -29.046875 C 56.160156 -31.816406 58.335938 -34.429688 60.453125 -36.890625 C 62.578125 -39.359375 64.664062 -41.5 66.71875 -43.3125 C 68.769531 -45.132812 70.800781 -46.460938 72.8125 -47.296875 C 74.832031 -48.140625 76.851562 -48.320312 78.875 -47.84375 C 79.09375 -47.8125 79.351562 -47.707031 79.65625 -47.53125 C 79.96875 -47.363281 80.234375 -47.070312 80.453125 -46.65625 C 80.679688 -46.25 80.785156 -45.65625 80.765625 -44.875 C 80.710938 -43.894531 80.363281 -42.675781 79.71875 -41.21875 C 79.082031 -39.769531 78.160156 -38.210938 76.953125 -36.546875 C 75.753906 -34.878906 74.316406 -33.203125 72.640625 -31.515625 C 70.960938 -29.835938 69.0625 -28.265625 66.9375 -26.796875 C 64.820312 -25.328125 62.503906 -24.070312 59.984375 -23.03125 C 57.460938 -22 54.785156 -21.28125 51.953125 -20.875 L 51.234375 -20.796875 C 50.203125 -20.660156 49.335938 -20.195312 48.640625 -19.40625 C 46.128906 -16.5 43.507812 -13.738281 40.78125 -11.125 C 38.050781 -8.507812 35.191406 -6.320312 32.203125 -4.5625 C 31.878906 -4.34375 31.742188 -4.050781 31.796875 -3.6875 C 31.878906 -3.3125 32.117188 -3.097656 32.515625 -3.046875 C 35.128906 -2.671875 37.773438 -2.453125 40.453125 -2.390625 C 43.140625 -2.335938 45.804688 -2.507812 48.453125 -2.90625 C 51.109375 -3.3125 53.707031 -4.035156 56.25 -5.078125 C 58.800781 -6.117188 61.25 -7.570312 63.59375 -9.4375 C 63.832031 -9.625 64.09375 -9.703125 64.375 -9.671875 C 64.65625 -9.648438 64.890625 -9.519531 65.078125 -9.28125 C 65.265625 -9.0625 65.335938 -8.804688 65.296875 -8.515625 C 65.253906 -8.222656 65.128906 -7.984375 64.921875 -7.796875 C 62.097656 -5.554688 59.140625 -3.867188 56.046875 -2.734375 C 52.953125 -1.609375 49.800781 -0.890625 46.59375 -0.578125 C 43.394531 -0.273438 40.210938 -0.25 37.046875 -0.5 C 33.890625 -0.75 30.832031 -1.128906 27.875 -1.640625 C 27.050781 -1.773438 26.253906 -1.679688 25.484375 -1.359375 Z M 7.71875 -5.046875 C 7 -5.046875 6.257812 -4.988281 5.5 -4.875 C 4.738281 -4.769531 4.101562 -4.609375 3.59375 -4.390625 C 3.09375 -4.179688 2.84375 -3.90625 2.84375 -3.5625 C 2.84375 -3.375 2.894531 -3.160156 3 -2.921875 C 3.101562 -2.679688 3.382812 -2.441406 3.84375 -2.203125 C 4.101562 -2.035156 4.632812 -1.78125 5.4375 -1.4375 C 6.238281 -1.09375 7.332031 -0.804688 8.71875 -0.578125 C 10.101562 -0.347656 11.820312 -0.3125 13.875 -0.46875 C 15.925781 -0.632812 18.34375 -1.171875 21.125 -2.078125 C 21.25 -2.109375 21.351562 -2.179688 21.4375 -2.296875 C 21.519531 -2.421875 21.46875 -2.5625 21.28125 -2.71875 C 21.09375 -2.875 20.664062 -3.019531 20 -3.15625 C 15.96875 -4.226562 11.875 -4.859375 7.71875 -5.046875 Z M 76.796875 -46 C 75.203125 -46 73.5625 -45.503906 71.875 -44.515625 C 70.195312 -43.535156 68.476562 -42.195312 66.71875 -40.5 C 64.957031 -38.800781 63.148438 -36.851562 61.296875 -34.65625 C 59.441406 -32.457031 57.515625 -30.132812 55.515625 -27.6875 C 54.742188 -26.71875 53.945312 -25.742188 53.125 -24.765625 C 52.882812 -24.441406 52.867188 -24.109375 53.078125 -23.765625 C 53.265625 -23.410156 53.554688 -23.273438 53.953125 -23.359375 C 56.492188 -23.921875 58.863281 -24.734375 61.0625 -25.796875 C 63.257812 -26.867188 65.265625 -28.097656 67.078125 -29.484375 C 68.890625 -30.867188 70.507812 -32.3125 71.9375 -33.8125 C 73.363281 -35.320312 74.570312 -36.796875 75.5625 -38.234375 C 76.550781 -39.679688 77.300781 -40.988281 77.8125 -42.15625 C 78.332031 -43.332031 78.609375 -44.28125 78.640625 -45 C 78.671875 -45.15625 78.671875 -45.320312 78.640625 -45.5 C 78.609375 -45.675781 78.53125 -45.773438 78.40625 -45.796875 C 77.894531 -45.929688 77.359375 -46 76.796875 -46 Z M 76.796875 -46 "/></g></g></g><g fill="#2b61b2" fill-opacity="1"><g transform="translate(229.964664, 226.250025)"><g><path d="M 25.921875 -10.796875 C 26.128906 -10.609375 26.234375 -10.367188 26.234375 -10.078125 C 26.234375 -9.785156 26.140625 -9.53125 25.953125 -9.3125 C 25.847656 -9.238281 25.441406 -8.867188 24.734375 -8.203125 C 24.035156 -7.535156 23.101562 -6.738281 21.9375 -5.8125 C 20.78125 -4.894531 19.453125 -3.984375 17.953125 -3.078125 C 16.460938 -2.171875 14.867188 -1.414062 13.171875 -0.8125 C 11.484375 -0.21875 9.785156 0.078125 8.078125 0.078125 C 5.628906 0.109375 3.429688 -0.609375 1.484375 -2.078125 C 0.679688 -2.660156 0.132812 -3.351562 -0.15625 -4.15625 C -0.445312 -4.957031 -0.570312 -5.785156 -0.53125 -6.640625 C -0.5 -7.492188 -0.375 -8.289062 -0.15625 -9.03125 C 0.0507812 -9.78125 0.253906 -10.394531 0.453125 -10.875 C 0.660156 -11.351562 0.773438 -11.625 0.796875 -11.6875 C 0.960938 -11.925781 1.175781 -12.082031 1.4375 -12.15625 C 1.707031 -12.238281 1.960938 -12.210938 2.203125 -12.078125 C 2.460938 -11.941406 2.640625 -11.738281 2.734375 -11.46875 C 2.828125 -11.207031 2.8125 -10.957031 2.6875 -10.71875 C 2.6875 -10.695312 2.601562 -10.507812 2.4375 -10.15625 C 2.28125 -9.8125 2.113281 -9.359375 1.9375 -8.796875 C 1.769531 -8.234375 1.648438 -7.640625 1.578125 -7.015625 C 1.515625 -6.390625 1.5625 -5.78125 1.71875 -5.1875 C 1.875 -4.601562 2.207031 -4.128906 2.71875 -3.765625 C 3.945312 -2.859375 5.25 -2.3125 6.625 -2.125 C 8 -1.9375 9.378906 -2.007812 10.765625 -2.34375 C 12.148438 -2.675781 13.507812 -3.164062 14.84375 -3.8125 C 16.175781 -4.46875 17.414062 -5.1875 18.5625 -5.96875 C 19.707031 -6.757812 20.71875 -7.515625 21.59375 -8.234375 C 22.476562 -8.953125 23.164062 -9.550781 23.65625 -10.03125 C 24.15625 -10.519531 24.414062 -10.773438 24.4375 -10.796875 C 24.65625 -11.015625 24.898438 -11.125 25.171875 -11.125 C 25.453125 -11.125 25.703125 -11.015625 25.921875 -10.796875 Z M 0.359375 -13.953125 C -0.171875 -13.953125 -0.503906 -14.222656 -0.640625 -14.765625 C -0.773438 -15.296875 -0.601562 -15.691406 -0.125 -15.953125 C 0.625 -16.328125 1.289062 -16.820312 1.875 -17.4375 C 2.09375 -17.65625 2.34375 -17.765625 2.625 -17.765625 C 2.90625 -17.765625 3.148438 -17.671875 3.359375 -17.484375 C 3.578125 -17.265625 3.691406 -17.015625 3.703125 -16.734375 C 3.710938 -16.453125 3.613281 -16.207031 3.40625 -16 C 2.65625 -15.226562 1.8125 -14.601562 0.875 -14.125 C 0.71875 -14.007812 0.546875 -13.953125 0.359375 -13.953125 Z M 0.359375 -13.953125 "/></g></g></g><g fill="#2b61b2" fill-opacity="1"><g transform="translate(254.522219, 226.250025)"><g><path d="M 34.953125 -9.953125 C 35.171875 -9.773438 35.285156 -9.535156 35.296875 -9.234375 C 35.304688 -8.941406 35.207031 -8.691406 35 -8.484375 C 34.945312 -8.398438 34.648438 -8.097656 34.109375 -7.578125 C 33.578125 -7.054688 32.859375 -6.425781 31.953125 -5.6875 C 31.046875 -4.957031 29.992188 -4.226562 28.796875 -3.5 C 27.597656 -2.769531 26.304688 -2.148438 24.921875 -1.640625 C 23.535156 -1.128906 22.101562 -0.832031 20.625 -0.75 C 19.144531 -0.675781 17.65625 -0.945312 16.15625 -1.5625 C 14.082031 -2.601562 12.46875 -4.132812 11.3125 -6.15625 C 11.15625 -6.375 10.929688 -6.707031 10.640625 -7.15625 C 10.347656 -7.613281 9.945312 -7.828125 9.4375 -7.796875 C 9.195312 -7.796875 8.84375 -7.722656 8.375 -7.578125 C 7.914062 -7.429688 7.316406 -7.140625 6.578125 -6.703125 C 5.847656 -6.265625 4.972656 -5.578125 3.953125 -4.640625 C 2.941406 -3.703125 1.757812 -2.445312 0.40625 -0.875 C 0.0507812 -0.476562 -0.375 -0.398438 -0.875 -0.640625 C -1.351562 -0.878906 -1.53125 -1.265625 -1.40625 -1.796875 L 0.59375 -10.59375 C 0.65625 -10.863281 0.8125 -11.078125 1.0625 -11.234375 C 1.3125 -11.398438 1.570312 -11.441406 1.84375 -11.359375 C 2.132812 -11.304688 2.351562 -11.148438 2.5 -10.890625 C 2.644531 -10.640625 2.691406 -10.382812 2.640625 -10.125 L 1.71875 -6.15625 C 1.695312 -6.019531 1.75 -5.914062 1.875 -5.84375 C 2.007812 -5.789062 2.128906 -5.816406 2.234375 -5.921875 C 5.203125 -8.722656 7.695312 -10.054688 9.71875 -9.921875 C 10.570312 -9.867188 11.289062 -9.519531 11.875 -8.875 C 12.332031 -8.394531 12.734375 -7.875 13.078125 -7.3125 C 13.984375 -5.664062 15.265625 -4.398438 16.921875 -3.515625 C 18.203125 -2.984375 19.492188 -2.769531 20.796875 -2.875 C 22.109375 -2.988281 23.375 -3.285156 24.59375 -3.765625 C 25.820312 -4.242188 26.96875 -4.820312 28.03125 -5.5 C 29.101562 -6.175781 30.046875 -6.847656 30.859375 -7.515625 C 31.671875 -8.179688 32.300781 -8.738281 32.75 -9.1875 C 33.207031 -9.644531 33.453125 -9.890625 33.484375 -9.921875 C 33.671875 -10.128906 33.910156 -10.234375 34.203125 -10.234375 C 34.492188 -10.234375 34.742188 -10.140625 34.953125 -9.953125 Z M 34.953125 -9.953125 "/></g></g></g><g fill="#2b61b2" fill-opacity="1"><g transform="translate(287.838897, 226.250025)"><g><path d="M 33.046875 -9.484375 C 33.253906 -9.296875 33.34375 -9.054688 33.3125 -8.765625 C 33.3125 -8.460938 33.207031 -8.207031 33 -8 C 31.53125 -6.582031 29.84375 -5.394531 27.9375 -4.4375 C 26.03125 -3.476562 24.035156 -2.71875 21.953125 -2.15625 C 19.878906 -1.59375 17.851562 -1.210938 15.875 -1.015625 C 13.90625 -0.816406 12.109375 -0.785156 10.484375 -0.921875 C 8.859375 -1.054688 7.550781 -1.320312 6.5625 -1.71875 C 5.601562 -2.09375 4.96875 -2.539062 4.65625 -3.0625 C 4.351562 -3.582031 4.1875 -4.039062 4.15625 -4.4375 C 4.15625 -4.488281 4.117188 -4.507812 4.046875 -4.5 C 3.984375 -4.488281 3.914062 -4.441406 3.84375 -4.359375 C 2.53125 -3.109375 1.367188 -1.722656 0.359375 -0.203125 C 0.0351562 0.222656 -0.375 0.34375 -0.875 0.15625 C -1.382812 -0.03125 -1.613281 -0.390625 -1.5625 -0.921875 C -1.289062 -3.847656 -0.972656 -6.816406 -0.609375 -9.828125 C -0.253906 -12.847656 0.171875 -15.742188 0.671875 -18.515625 C 1.179688 -21.296875 1.78125 -23.804688 2.46875 -26.046875 C 3.164062 -28.285156 3.972656 -30.117188 4.890625 -31.546875 C 5.816406 -32.972656 6.894531 -33.832031 8.125 -34.125 C 8.65625 -34.332031 9.207031 -34.363281 9.78125 -34.21875 C 10.351562 -34.070312 10.828125 -33.769531 11.203125 -33.3125 C 11.648438 -32.675781 11.800781 -31.742188 11.65625 -30.515625 C 11.507812 -29.296875 11.144531 -27.894531 10.5625 -26.3125 C 9.976562 -24.738281 9.273438 -23.097656 8.453125 -21.390625 C 7.640625 -19.691406 6.785156 -18.019531 5.890625 -16.375 C 5.003906 -14.738281 4.160156 -13.253906 3.359375 -11.921875 C 2.554688 -10.585938 1.914062 -9.519531 1.4375 -8.71875 C 1.382812 -8.664062 1.359375 -8.640625 1.359375 -8.640625 C 1.253906 -7.753906 1.148438 -6.847656 1.046875 -5.921875 C 1.015625 -5.648438 1.117188 -5.460938 1.359375 -5.359375 C 1.597656 -5.222656 1.8125 -5.265625 2 -5.484375 C 3.625 -7.078125 5.175781 -8.3125 6.65625 -9.1875 C 8.132812 -10.070312 9.425781 -10.660156 10.53125 -10.953125 C 11.644531 -11.253906 12.414062 -11.335938 12.84375 -11.203125 C 13.375 -10.984375 13.640625 -10.597656 13.640625 -10.046875 C 13.609375 -9.585938 13.394531 -9.257812 13 -9.0625 C 12.601562 -8.863281 12.164062 -8.707031 11.6875 -8.59375 C 9.550781 -7.5625 8.113281 -6.691406 7.375 -5.984375 C 6.644531 -5.273438 6.28125 -4.785156 6.28125 -4.515625 C 6.28125 -4.222656 6.640625 -3.929688 7.359375 -3.640625 C 8.210938 -3.296875 9.382812 -3.066406 10.875 -2.953125 C 12.375 -2.847656 14.03125 -2.894531 15.84375 -3.09375 C 17.65625 -3.300781 19.519531 -3.660156 21.4375 -4.171875 C 23.351562 -4.691406 25.1875 -5.390625 26.9375 -6.265625 C 28.6875 -7.148438 30.226562 -8.234375 31.5625 -9.515625 C 31.769531 -9.734375 32.019531 -9.832031 32.3125 -9.8125 C 32.613281 -9.800781 32.859375 -9.691406 33.046875 -9.484375 Z M 8.59375 -32.078125 C 8.144531 -31.972656 7.671875 -31.648438 7.171875 -31.109375 C 6.679688 -30.578125 6.171875 -29.734375 5.640625 -28.578125 C 5.109375 -27.421875 4.582031 -25.867188 4.0625 -23.921875 C 3.539062 -21.972656 3.023438 -19.53125 2.515625 -16.59375 C 2.460938 -16.332031 2.570312 -16.148438 2.84375 -16.046875 C 3.101562 -15.960938 3.300781 -16.039062 3.4375 -16.28125 C 5.039062 -19.132812 6.332031 -21.679688 7.3125 -23.921875 C 8.300781 -26.160156 8.984375 -27.984375 9.359375 -29.390625 C 9.734375 -30.804688 9.785156 -31.703125 9.515625 -32.078125 C 9.460938 -32.128906 9.359375 -32.15625 9.203125 -32.15625 C 8.984375 -32.15625 8.78125 -32.128906 8.59375 -32.078125 Z M 8.59375 -32.078125 "/></g></g></g><g fill="#2b61b2" fill-opacity="1"><g transform="translate(319.355763, 226.250025)"><g><path d="M 34.515625 -10.515625 C 34.703125 -10.304688 34.796875 -10.066406 34.796875 -9.796875 C 34.796875 -9.503906 34.691406 -9.253906 34.484375 -9.046875 C 33.097656 -7.679688 31.550781 -6.507812 29.84375 -5.53125 C 28.132812 -4.5625 26.363281 -3.753906 24.53125 -3.109375 C 22.707031 -2.472656 20.9375 -2 19.21875 -1.6875 C 17.5 -1.382812 15.929688 -1.234375 14.515625 -1.234375 C 12.992188 -1.160156 11.53125 -1.441406 10.125 -2.078125 C 9.164062 -2.640625 8.519531 -3.253906 8.1875 -3.921875 C 7.851562 -4.585938 7.710938 -5.273438 7.765625 -5.984375 C 7.816406 -6.691406 7.96875 -7.359375 8.21875 -7.984375 C 8.46875 -8.609375 8.710938 -9.144531 8.953125 -9.59375 C 9.015625 -9.707031 8.988281 -9.789062 8.875 -9.84375 C 8.769531 -9.894531 8.582031 -9.851562 8.3125 -9.71875 C 6.851562 -8.914062 5.28125 -8.554688 3.59375 -8.640625 C 2.851562 -8.609375 2.125 -8.753906 1.40625 -9.078125 C 1.132812 -8.992188 0.863281 -9.019531 0.59375 -9.15625 C 0.164062 -9.375 -0.015625 -9.722656 0.046875 -10.203125 C -0.359375 -10.679688 -0.640625 -11.226562 -0.796875 -11.84375 C -1.117188 -12.9375 -1.09375 -14.015625 -0.71875 -15.078125 C -0.34375 -16.148438 0.304688 -17.03125 1.234375 -17.71875 C 2.359375 -18.382812 3.238281 -18.410156 3.875 -17.796875 C 3.957031 -17.722656 4.054688 -17.582031 4.171875 -17.375 C 4.296875 -17.175781 4.367188 -16.863281 4.390625 -16.4375 C 4.421875 -16.007812 4.335938 -15.410156 4.140625 -14.640625 C 3.941406 -13.867188 3.5625 -12.851562 3 -11.59375 C 2.945312 -11.488281 2.984375 -11.316406 3.109375 -11.078125 C 3.242188 -10.835938 3.40625 -10.71875 3.59375 -10.71875 C 5.144531 -10.71875 6.597656 -11.101562 7.953125 -11.875 C 8.410156 -12.113281 8.890625 -12.3125 9.390625 -12.46875 C 9.898438 -12.632812 10.4375 -12.503906 11 -12.078125 C 11.5625 -11.648438 11.75 -11.125 11.5625 -10.5 C 11.375 -9.875 11.132812 -9.269531 10.84375 -8.6875 C 10.226562 -7.425781 9.90625 -6.441406 9.875 -5.734375 C 9.851562 -5.035156 10.296875 -4.414062 11.203125 -3.875 C 11.703125 -3.582031 12.554688 -3.398438 13.765625 -3.328125 C 14.984375 -3.265625 16.398438 -3.359375 18.015625 -3.609375 C 19.628906 -3.867188 21.328125 -4.285156 23.109375 -4.859375 C 24.898438 -5.429688 26.648438 -6.179688 28.359375 -7.109375 C 30.066406 -8.046875 31.613281 -9.195312 33 -10.5625 C 33.207031 -10.75 33.460938 -10.84375 33.765625 -10.84375 C 34.054688 -10.84375 34.304688 -10.734375 34.515625 -10.515625 Z M 1.15625 -12.71875 C 1.632812 -13.726562 2.007812 -14.78125 2.28125 -15.875 C 1.289062 -15.019531 0.914062 -13.96875 1.15625 -12.71875 Z M 1.15625 -12.71875 "/></g></g></g></svg>