<?xml version="1.0" encoding="UTF-8"?>
<svg version="1.1" viewBox="0 0 2048 1622" width="1280" height="1280" xmlns="http://www.w3.org/2000/svg">
<path transform="translate(0)" d="m0 0h2048v1622h-2048z" fill="#0A1A3B"/>
<path transform="translate(1105,177)" d="m0 0 2 1-2 6-44 88-8 17-10 19-23 46-1 5 4 2 12 10 13 10 18 14 13 10 16 13 16 12 16 13 13 10 18 14 17 13 11 9 14 11 18 14 14 11 9 8 4 2 5 5 4 2 5 5 4 2 5 5 5 4 4 2 5 5 5 4 4 2 5 5 4 2 1 2 4 2 5 5 4 2 5 5 4 2 5 5 4 2v2l4 1 5 5 4 2 5 5 14 11 4 2 1 2 4 2 5 5 4 2 5 6-4 1-30-7-14-3-17-2-35-8-271-57-32-7-41-9-52-11-40-9-37-8-10-5-2-4-1-9-1-7-3-12-3-8-4-25-1-8-1-1v-10h-2l1-4-2-1-4-18-2-8-2-18-4-7 5-5 48-30 34-21 23-14 26-16 23-14 21-13 20-12 26-16 25-15 21-13 20-12 18-11 16-10z" fill="#265477"/>
<path transform="translate(654,516)" d="m0 0 7 1 41 9 11 4 20 4 14 4 25 7 9 2 6 3 14 4 16 4 18 6 11 3 6 2 11 3 19 5 17 5 18 5 10 4 15 3 10 3 15 4 11 4 16 4 16 5 25 7 15 5 32 9 17 5 23 6 9 3 16 5 5 2 18 4 15 5 23 6 10 3 1 1 9 2 11 3 33 11 12 3 9 2 10 3-4 4-20 13-24 15-23 14-46 28-13 8-10 5-14 9h-2v2l-10 5-16 10-5 2v2l-6 3h-2v2l-12 6-18 11-5 2v2l-6 3h-2v2l-8 4h-2v2l-10 5-5 2-1 3-7 3-23 14-5 2v2l-10 5-3 1v2l-12 6-3 1v2l-5 1-1 3h-4l-1 3h-4l-1 3h-4l-1 3-7 3-5 2v2l-5 1v2l-5 1v2l-10 5-11 7h-2v2l-9 3 1 5-1 3-1 12-1 79 33-3 9-1-1 10-2 2h-59l1-5 1-32v-34l-1-28-1-6 12-1 25-50 11-23 12-24h2v-4h2l1-6h2l2-6 27-54v-5l-5-5-5-4-5-3-5-5-14-11-10-8-5-2-5-6-5-4-5-2-6-5-2-3-4-2-1-2-5-2-17-14-16-12-28-22-15-12-17-13-16-13-18-14-13-10-18-14-11-9-13-10-12-10-17-13-13-11-9-7-7-6z" fill="#265477"/>
<path transform="translate(839,664)" d="m0 0 9 1v2l5 2 16 5 23 4 4 2 8 1 12 4 6 1 6 3 16 3 13 4 9 3 34 9 12 4 8 2 24 7 17 5 19 6 12 4 16 4 18 5 12 4 10 4 13 5 8 2 11 4h13l4-2 3 1-4 4-13 8-10 6-10 5-14 9h-2v2l-10 5-16 10-5 2v2l-6 3h-2v2l-12 6-18 11-5 2v2l-6 3h-2v2l-8 4h-2v2l-10 5-5 2-1 3-7 3-23 14-5 2v2l-10 5-3 1v2l-12 6-3 1v2l-5 1-1 3h-4l-1 3h-4l-1 3h-4l-1 3-7 3-5 2v2l-5 1v2l-5 1v2l-10 5-11 7h-2v2l-9 3 1 5-1 3-1 12-1 79 33-3 9-1-1 10-2 2h-59l1-5 1-32v-34l-1-28-1-6 12-1 25-50 11-23 12-24h2v-4h2l1-6h2l2-6 27-54v-5l-5-5-5-4-5-3-5-5-14-11-10-8-5-2-5-6-5-4-5-2-6-5-2-3-4-2-1-2-5-2-17-14-16-12-14-11-5-6z" fill="#4EACD4"/>
<path transform="translate(1110,434)" d="m0 0 4 1 12 9 5 2 18 14 13 10 14 11 10 8 14 11 18 14 14 11 9 8 4 2 5 5 4 2 5 5 4 2 5 5 5 4 4 2 5 5 5 4 4 2 5 5 4 2 1 2 4 2 5 5 4 2 5 5 4 2 5 5 4 2v2l4 1 5 5 4 2 5 5 14 11 4 2 1 2 4 2 5 5 4 2 5 6-4 1-30-7-126-27-55-12-33-7-7-2 3-3 5-2v-2h2l-6-10-4-7-4-13-1-2-1-9-1-7-1-8-2-9-2-10-2-4-1-10-2-5-2-12-3-9-1-14 3-6h2l-2-9-4-6v-2z" fill="#3B85A8"/>
<path transform="translate(839,664)" d="m0 0 9 1v2l5 2 16 5 23 4 4 2 8 1 12 4 6 1 6 3 16 3 13 4 9 3 34 9 12 4 8 2 24 7 17 5 19 6 12 4 16 4 18 5 12 4 10 4 13 5 8 2 11 4h13l4-2 3 1-4 4-13 8-10 6-10 5-14 9h-2v2l-6 2v-2l-11 2h-7l-10-5-20-6-6-3-6-2-43-13-17-5-19-6-20-5-1-1-12-2-17-6-12-6-9-4-4 1-6-7-5-4-5-2-6-5-2-3-4-2-1-2-5-2-17-14-16-12-14-11-5-6z" fill="#3B85A8"/>
<path transform="translate(1214,520)" d="m0 0h6l6 5 3 1v2h6l6 5 4 2 5 5 4 2 5 5 4 2 5 5 5 4 4 2 5 5 5 4 4 2 5 5 4 2 1 2 4 2 5 5 4 2 5 5 4 2 5 5 4 2v2l4 1 5 5 4 2 5 5 14 11 4 2 1 2 4 2 5 5 4 2 5 6-4 1-30-7-126-27-11-3-2-2 7-2 10-2 1-2-6-13v-6l-4-7-1-6 1-7-1-7-1-5 1-4 1-11-3-1 1-4-6-10z" fill="#4596B8"/>
<path transform="translate(1648,945)" d="m0 0 19 1 10 2 11 7 3 2v3h2l3 7v12l-4 9-7 8-7 4h-2l2 5h2v3h2l3 6 2 1v3h2l3 6 2 1 4 7 2 1 1 3 3 3 8 10v1h-22l-13-19-16-23-3-3h-15l2 28 1 2v16h-23v-4h2v-96l-1-5z" fill="#4DAAD2"/>
<path transform="translate(893,705)" d="m0 0 7 1 16 8 22 5 4 2 9 2 19 5 16 4 6 2 9 2 22 6 16 5 8 3 16 4 7 3 11 3 12 4 31 10 7 3 21 7 15-3 5-2v2l-15 9-8 5h-2v2l-6 2v-2l-11 2h-7l-10-5-20-6-6-3-6-2-43-13-17-5-19-6-20-5-1-1-12-2-17-6-12-6-9-4-4 1-6-7-5-4-5-2-6-5-2-3-4-2-5-5z" fill="#4596B8"/>
<path transform="translate(478,945)" d="m0 0h9v16l-1 29 9-6 16-13 6-5 12-9 1-2 5-3 2-2 2-5h21v3l-8 3-14 10-17 14-15 12-2 1 2 4 26 26v2h2l7 8 10 10 14 11v1h-24l-36-36-7-8-8-8-3-1-1-2v35l1 20h-21l1-14v-84l-2-6z" fill="#4DABD3"/>
<path transform="translate(1474,945)" d="m0 0h3l-1 7-1 39h2v-2l3-1 1-2 4-2 1-2 4-2 1-2 5-3 10-8 1-2 4-2 1-2 4-2 1-2 7-4 3-5 2-3h21v2l-16 9-17 14-10 8-14 11 21 21 5 4 4 6 19 19 10 8 3 3-5 1-20-1-11-12-25-25-7-8-7-7-5-3 1 39v15h2v2h-23l2-18v-82l-1-5z" fill="#4EABD3"/>
<path transform="translate(1275,945)" d="m0 0 4 1 14 12 12 12 2 1v2l4 2 30 30 8 7 8 8 2 1-1-75h13l-1 7-1 98-5-2-12-11-7-7-8-7-14-14-8-7-15-15-8-7-5-4v50l1 24h-13l1-13v-76z" fill="#4EACD4"/>
<path transform="translate(343,906)" d="m0 0h13l12 2 9 5v19l-4-4-7-8-7-4-10-1-9 3-4 3-1 3h-2l-1 5v11l3 6v3h2l1 3 2 1 3 5 35 35 1 5h2l4 8v19l-4 10-9 10-12 6-4 1h-14l-14-2-13-7-1-1v-14l1-7 5 2 3 8 3 3v2l12 6 4 1h9l8-2v-2l4-2 1-3h2l1-7v-8l-2-8-6-10-22-22-6-5-9-12-5-11-1-4v-17l7-11 6-6h2v-2z" fill="#4DABD2"/>
<path transform="translate(1018,907)" d="m0 0h22l-1 27-1 108 27-2 23-4h5l-3 14h-72l1-14 1-39 1-86h-2z" fill="#4EADD4"/>
<path transform="translate(1293,580)" d="m0 0 5 1 2 1v2l4 2 7 3 7 4 5 3 5 5 4 2v2l4 1 5 5 4 2 5 5 14 11 4 2 1 2 4 2 5 5 4 2 5 6-4 1-30-7-75-16 1-3 13-1 4-1 6 1 4-2 3-4-2-5v-6l-5-2-1-8h-2l-4-8-2-5z" fill="#4DABD3"/>
<path transform="translate(743,946)" d="m0 0h21l-1 12v84l24-1 14-2h5l-3 11h-60l1-6v-91z" fill="#4EADD5"/>
<path transform="translate(635,946)" d="m0 0h22l-1 4v99h2v2h-24l2-7v-75z" fill="#4DAAD2"/>
<path transform="translate(1168,946)" d="m0 0h21l-1 10v82l1 13-22-1 1-4 1-14v-68z" fill="#4EADD4"/>
<path transform="translate(1105,177)" d="m0 0 2 1-2 6-42 84h-2l1-5 3-9 1-4v-24l-6-3-1-3h3l-7-2h-9v-3l5-3 4-4 25-15 14-9z" fill="#3980A3"/>
<path transform="translate(1646,952)" d="m0 0h18l3 1v2l4 1 5 8 1 6v9l-5 12-3 3h-3v2l-11 3h-11l-1-7v-33l1-6z" fill="#0B1D3E"/>
<path transform="translate(1315,1074)" d="m0 0h15l5 2 3 4v13l-4 4h-2v2h-7l-5-3v10h-5z" fill="#397FA2"/>
<path transform="translate(1273,1074)" d="m0 0h12l9 3 2 4v11l-7 7h-6l-4-2-1 6 3 1-3 2-5-1z" fill="#265477"/>
<path transform="translate(387,1074)" d="m0 0h13v21l-1 3-4 1h-11l-5-4-2-4v-11l3-5z" fill="#265679"/>
<path transform="translate(572,1074)" d="m0 0h10l5 4 2 5-1 9-4 5-4 2h-7l-5-4-3-6v-6l5-8z" fill="#265477"/>
<path transform="translate(1366,1074)" d="m0 0h8l6 5 1 3v8l-2 5-5 2v2h-9v-2l-3-1-4-7v-6l3-6z" fill="#387DA0"/>
<path transform="translate(1079,1074)" d="m0 0h9l5 3 2 4v10l-6 7-2 1h-6l-7-5-2-6 1-7z" fill="#4598BE"/>
<path transform="translate(1632,1074)" d="m0 0 8 1 4 5 1 4v7l-3 7-2 1h-8l-7-4-2-5v-7l3-6z" fill="#27587B"/>
<path transform="translate(1125,1074)" d="m0 0 8 1 2 2v18h-2v2l-7 2-5-1-5-6v-11l5-6z" fill="#265477"/>
<path transform="translate(1669,1074)" d="m0 0h9l2 1 1 4v16l-3 3-9 1-5-4-1-3v-8l5-9z" fill="#265578"/>
<path transform="translate(335,1068)" d="m0 0h5l1 5 13 3 2 1 1 7v15l-5 1-1-1-1-19-2-1h-6l-1 20-3 1-3-1z" fill="#265477"/>
<path transform="translate(985,1066)" d="m0 0h5l-1 24-3 7-5 2h-8l-6-5-2-10v-17h6l1 23 2 4h8l1-1z" fill="#265477"/>
<path transform="translate(1239,1067)" d="m0 0 8 2 5 5 1 3v11l-3 6h-2l-1 3-5 2h-6l-6-5v-2h-2l-2-4v-8l4-9 4-3zm-2 4-5 5-1 2v10l3 5 4 3 5-1 4-4 1-3v-11l-4-5z" fill="#347498"/>
<path transform="translate(1504,1074)" d="m0 0h12l8 2 2 3 1 20-4 1-3-1v-20h-9l-1 20h-6z" fill="#265477"/>
<path transform="translate(609,1073)" d="m0 0 5 1 1 21h8v-21h8l-1 24-1 1h-14l-5-4-2-5v-16z" fill="#265477"/>
<path transform="translate(1007,1074)" d="m0 0h13l7 2 2 6v18l-6-1v-18l-1-2-9-2v22l-2 1-4-1z" fill="#265477"/>
<path transform="translate(875,1074)" d="m0 0h7l4 4 1 9v9l-5 3-6 1-6-3-2-3v-8l2 1 2 7 6 2h3v-7l-1-2-6-2v-2l-4-1 1-5z" fill="#295B7F"/>
<path transform="translate(759,1067)" d="m0 0h4v13l-1 4 5-5 10-8h2v2l-7 6-4 5-1 4 3 1 2 5 4 2 4 4-8-1-7-10v-2h-2v8l3 3 3 2-11-1v-31z" fill="#347498"/>
<path transform="translate(301,1068)" d="m0 0h8l5 3 2 6-3-1-3-3-7-1-1 4 10 5 3 3v9l-5 5h-10l-5-5-1-9h2l4 9 5 3 5-2 2-3-1-4-11-6-3-4 1-6z" fill="#347598"/>
<path transform="translate(1463,1073)" d="m0 0 5 1 1 21h11v-22l5 1v24l-4 1-14-1-3-4-1-9z" fill="#265477"/>
<path transform="translate(727,1067)" d="m0 0 6 2 4 7-1 4-6-8h-5l-1 4 10 5 3 3 1 7-1 3-6 4h-8l-4-2v-3h-2l-1-2v-6l3 1 2 8 10 1 2-6-1-3-12-7v-8l3-3z" fill="#347599"/>
<path transform="translate(1155,1067)" d="m0 0h5l-1 17 5-3 8-9 3-1-2 4-7 8h-2v5l4 2 4 6v3l-4-2-3-3v-2l-3-1-1-5h-2v12l-4 1-1-9v-22z" fill="#265578"/>
<path transform="translate(461,1074)" d="m0 0 8 1 4 4 1 2v9l-4-2-3-9h-6l-3 3v10l4 3 11-1v-2h2l-2 4-2 2-5 1h-7l-5-4-2-5 1-9 4-5z" fill="#265477"/>
<path transform="translate(1321,1078)" d="m0 0h10l2 2 1 4v8l-4 4-7-1-3-2v-13z" fill="#0A1A3B"/>
<path transform="translate(1279,1078)" d="m0 0h9l3 2 1 3v7l-1 4-3 2-7-1-2-1-1-3v-12z" fill="#0A1A3B"/>
<path transform="translate(525,1066)" d="m0 0 7 2 6 12 3-7 2-5 5-1-2 5-5 12-1 14-2 2-4-1v-13l-3-9-6-9z" fill="#27587B"/>
<path transform="translate(418,1074)" d="m0 0h16l1 3-1 2h-9v20l-1 1h-5l-1-1z" fill="#265477"/>
<path transform="translate(1084,1077)" d="m0 0 5 2 2 5-1 8-2 4h-6l-3-3-1-2v-10l3-3z" fill="#0A1A3B"/>
<path transform="translate(385,1078)" d="m0 0h9v16l-2 2-7-1-3-4v-10z" fill="#0A1A3B"/>
<path transform="translate(1571,1071)" d="m0 0h7v21l-1 8h-6z" fill="#265477"/>
<path transform="translate(1436,1070)" d="m0 0h8l-1 29-1 1h-6z" fill="#265477"/>
<path transform="translate(820,1067)" d="m0 0h7l-1 32h-6z" fill="#265477"/>
<path transform="translate(796,1073)" d="m0 0h6l1 1-1 25-1 1h-6v-26z" fill="#265477"/>
<path transform="translate(1369,1077)" d="m0 0 5 1 2 4v9l-3 4-5 1-4-4-1-9 2-4z" fill="#0A1A3B"/>
<path transform="translate(1125,1078)" d="m0 0 6 1 2 4v8l-3 6-7-1-2-4v-10z" fill="#0B1C3D"/>
<path transform="translate(649,1074)" d="m0 0 15 1v4h-10v21h-5l-1-1v-24z" fill="#265477"/>
<path transform="translate(575,1078)" d="m0 0h6l3 6-1 8-3 3h-6l-3-5v-7z" fill="#0A1A3B"/>
<path transform="translate(845,1067)" d="m0 0 5 1v31h-6v-31z" fill="#265578"/>
<path transform="translate(1631,1078)" d="m0 0h6l3 3 2 7v6l-3 2h-6l-5-4 1-4 9 1-1-5h-2l-1 4-2-1v-2l-4 2 1-7z" fill="#0A1A3C"/>
<path transform="translate(1598,1073)" d="m0 0h6v27h-6l-1-1z" fill="#265477"/>
<path transform="translate(1401,1074)" d="m0 0 15 1v4h-10v20l-5 1-1-2z" fill="#27577A"/>
<path transform="translate(1703,1067)" d="m0 0h6l-1 33h-4l-1-9z" fill="#265477"/>
<path transform="translate(1048,1067)" d="m0 0h5l1 2-1 30-4 1-1-3z" fill="#265477"/>
<path transform="translate(1545,1074)" d="m0 0h6v25l-1 1h-5z" fill="#265477"/>
<path transform="translate(1315,1074)" d="m0 0h15l5 2 3 4v13h-1l-1-9h-3l-2-5-10-1-1 2v-2h-3l-1 27 4 1h-5z" fill="#265477"/>
<path transform="translate(609,1073)" d="m0 0 5 1 1 21h2v2l3 1h-7l-4-5-1-3v-16z" fill="#28597C"/>
<path transform="translate(965,1067)" d="m0 0h6l1 23 2 5-3-1-2-5-2 4-1-1-1-8z" fill="#265477"/>
<path transform="translate(1239,1067)" d="m0 0 8 2 5 5 1 3v11l-3-4-2 4-1-11-5-5-7 1-3 3-2-2v-3l4-3z" fill="#275679"/>
<path transform="translate(1666,1082)" d="m0 0 5 2 1 2 6 2 1 1-1 7h-7l-4-2-2-5v-6z" fill="#0B1E3F"/>
<path transform="translate(758,1068)" d="m0 0 4 1v19l2 9 5 2v1l-11-1z" fill="#347598"/>
<path transform="translate(1288,1076)" d="m0 0h5l3 5v11l-7 7h-6l-4-2v-2h9l3-1v-11z" fill="#347497"/>
<path transform="translate(1366,1074)" d="m0 0h8l6 5 1 3v8l-2 5-1-2 1-7-3 4-2-12-9 1-2 4-3-3 2-4z" fill="#265578"/>
<path transform="translate(1079,1074)" d="m0 0h9l5 3 2 4v10h-1l-1-9-2-1-1 3-2-5-4-1-5 3v10l1 4h-2v-3l-2-1v-8l-1-5z" fill="#265477"/>
<path transform="translate(732,1082)" d="m0 0 4 1 2 4-1 7-6 4h-8l-4-2v-3h-2l-1-2v-6l3 1 2 8 10 1 2-6-2-5z" fill="#327093"/>
<path transform="translate(1023,1077)" d="m0 0 4 1v4h2v18l-6-1 1-19z" fill="#2B6083"/>
<path transform="translate(378,1081)" d="m0 0 3 2v8h2l4 4h5l2-2 1-5 3 2-1 5-3 3h-12l-4-5z" fill="#3980A3"/>
<path transform="translate(1018,909)" d="m0 0 1 2h2v86h-1l-1-78z" fill="#265477"/>
<path transform="translate(294,1084)" d="m0 0h2l4 9 5 3 5-2 2-3v-6h3v8l-5 5h-10l-5-5z" fill="#49A1C7"/>
<path transform="translate(453,1081)" d="m0 0h2l2 12 2 2h9l5-1v-2h2l-2 4-2 2-5 1h-7l-5-4-2-5z" fill="#337295"/>
<path transform="translate(1174,1071)" d="m0 0v3l-7 7-1 2h-2v5l4 2 4 6v3l-4-2-3-3v-2l-3-1-2-7 6-5 6-7z" fill="#3F8BB0"/>
<path transform="translate(1116,1081)" d="m0 0 4 1v10h2l1 3 7 2 2-6 2-2v6l-3 3-5 1-5-1-5-6z" fill="#397EA1"/>
<path transform="translate(1316,1075)" d="m0 0 1 3h3v27h-4z" fill="#3F8CAF"/>
<path transform="translate(1249,1079)" d="m0 0 3 1v11l-2 3h-2l-1 3-5 2h-6l-1-2h6v-2l5-4 1-3h2z" fill="#3C85A9"/>
<path transform="translate(1159,1086)" d="m0 0h2l2 5 5 5 2 3-3 1h-8l-2-2h2z" fill="#132D4F"/>
<path transform="translate(868,1086)" d="m0 0 2 1 2 7 6 2 4-1 2-7h2l-1 7-3 4-6 1-6-3-2-3z" fill="#326F92"/>
<path transform="translate(586,1086)" d="m0 0h1v8l-5 4-2 1h-7l-5-4-2-3v-5l2 3 3 5 5 1h5l2-7h2z" fill="#387DA0"/>
<path transform="translate(1049,1068)" d="m0 0 3 1 1 29h-3l-1-12z" fill="#3C87AA"/>
<path transform="translate(1625,1081)" d="m0 0h1l1 11 6 3v2h6l-2 2-7-1-5-3-2-5v-7h2z" fill="#3A81A5"/>
<path transform="translate(1463,1073)" d="m0 0 5 1v16h-1l-1-5-1 9h-1l-1-9z" fill="#265477"/>
<path transform="translate(1274,1075)" d="m0 0h1l1 5h1v25h-3z" fill="#3E8AAE"/>
<path transform="translate(727,1067)" d="m0 0 6 2 4 7-1 4-6-8h-5l-2 1v-2l-2-1 2-2z" fill="#265477"/>
<path transform="translate(301,1068)" d="m0 0h8l5 3 2 6-3-1-3-3-7-1-5 1 2-4z" fill="#265477"/>
<path transform="translate(1377,1082)" d="m0 0 3 3-1 8-3 4h-2v2h-9l-1-3h8l3-2z" fill="#4394B9"/>
<path transform="translate(1669,1082)" d="m0 0 9 3v2l3 1v7l-3 3-6 1-2-2 8-1v-7l-7-3z" fill="#4292B6"/>
<path transform="translate(1319,1080)" d="m0 0h1v13l10 3 2 3h-7l-5-3v8h-1z" fill="#2B6083"/>
<path transform="translate(1466,1082)" d="m0 0h1v8h2l1 5 6 2v1h-9l-2-2v-11z" fill="#397FA2"/>
<path transform="translate(876,1077)" d="m0 0h6l3 9-5-1v-2l-5-1z" fill="#0A1B3C"/>
<path transform="translate(1248,1072)" d="m0 0 4 2 1 3v11l-3-4-2 4-1-15z" fill="#2E678A"/>
<path transform="translate(1671,1077)" d="m0 0h6l2 2v7l-6-2-3-6z" fill="#0A1B3C"/>
<path transform="translate(1074,1079)" d="m0 0h2l1 7v5 3h-3l-2-6 1-7z" fill="#397FA3"/>
<path transform="translate(1664,1084)" d="m0 0h1l2 10 9 2-4 3-5-1-3-3-1-3v-7z" fill="#28597C"/>
<path transform="translate(1292,1091)" d="m0 0h2l-1 4-4 4h-6l-4-2v-2h9l3-1z" fill="#3A7FA3"/>
<path transform="translate(1362,1083)" d="m0 0h1l2 9 3 3 6-2 2-2-1 4-3 2h-9l-1-1z" fill="#2D6587"/>
<path transform="translate(294,1084)" d="m0 0h2l4 9 4 3-6 1-3-4z" fill="#306B8F"/>
<path transform="translate(1402,1086)" d="m0 0h3v13l-4 1v-3z" fill="#3980A3"/>
<path transform="translate(777,1071)" d="m0 0h2v2l-7 6-5 7-2-4 4-5z" fill="#295C7F"/>
<path transform="translate(300,1071)" d="m0 0h1l1 5 5 2-4 3-4-1-2-3v-4z" fill="#316E91"/>
<path transform="translate(1133,1089)" d="m0 0h1v6l-3 3-5 1-5-1-3-5 4 1 8 3 2-6z" fill="#4395BA"/>
<path transform="translate(969,1083)" d="m0 0h1l1 9 3 3 5 2v1h-8l-4-5z" fill="#357699"/>
<path transform="translate(1481,1074)" d="m0 0h1l1 7v17l-3-3z" fill="#3C86A9"/>
<path transform="translate(716,1085)" d="m0 0 3 1 2 8 8 2v1h-9l-1-4h-2l-1-2z" fill="#326E91"/>
<path transform="translate(1230,1073)" d="m0 0 2 1-1 5-1 8-1-4h-2l1-9z" fill="#3F8BAE"/>
<path transform="translate(1155,1081)" d="m0 0h1l2 7 1 10-4 1 1-10-1-1z" fill="#4191B5"/>
<path transform="translate(1174,1071)" d="m0 0v3l-7 7-1 2h-2l-1 4v-5l9-10z" fill="#2E668A"/>
<path transform="translate(1075,1093)" d="m0 0 12 3v3h-6l-6-5z" fill="#408EB2"/>
<path transform="translate(1544,1067)" d="m0 0h8l-1 4h-7z" fill="#265477"/>
<path transform="translate(909,1094)" d="m0 0 3 1v6l-5-1v-5z" fill="#2C6386"/>
<path transform="translate(735,1090)" d="m0 0 1 4-5 4h-8l-1-2h7l5-5z" fill="#4AA3C9"/>
<path transform="translate(847,1086)" d="m0 0h1l1 12-4 1 1-12z" fill="#3C86A9"/>
<path transform="translate(1018,909)" d="m0 0 1 2h2v16h-1z" fill="#327194"/>
<path transform="translate(1048,1086)" d="m0 0h2v12l3 1-4 1-1-3z" fill="#295B7E"/>
<path transform="translate(1334,1090)" d="m0 0 2 1-1 5-3 2-3-1z" fill="#418EB1"/>
<path transform="translate(1635,1084)" d="m0 0h2l1 5h-9l2-4 1 2h2z" fill="#2A5D81"/>
<path transform="translate(795,1066)" d="m0 0 8 1-1 3h-7z" fill="#265477"/>
</svg>
